/* XPM */
static char * bomb_xpm[] = {
"17 19 5 1",
" 	c None",
".	c #DCDAD5",
"+	c #BAB5AB",
"@	c #000000",
"#	c #FFFFFF",
".................",
"+++++++++++++++++",
"+++++++++++++++++",
"+++++++++++++++++",
"++++++++@@+++++++",
"++++++++@@+++++++",
"++++++@@@@@@+++++",
"+++++@@@###@@++++",
"+++++@@@@###@++++",
"+++@@@@@@@@@@@@++",
"+++@@@@@@@@@@@@++",
"+++++@@@@@@@@++++",
"+++++@@@@@@@@++++",
"++++++@@@@@@+++++",
"++++++++@@+++++++",
"++++++++@@+++++++",
"+++++++++++++++++",
"+++++++++++++++++",
"+++++++++++++++++"};
