/* XPM */
static char * flag_xpm[] = {
"17 19 5 1",
" 	c None",
".	c #DCDAD5",
"+	c #BAB5AB",
"@	c #FE0204",
"#	c #000000",
".................",
"+++++++++++++++++",
"+++++++++++++++++",
"+++++++++++++++++",
"+++++++++@#++++++",
"+++++++@@@#++++++",
"+++++@@@@@#++++++",
"+++@@@@@@@#++++++",
"+++++@@@@@#++++++",
"+++++++@@@#++++++",
"+++++++++##++++++",
"+++++++++##++++++",
"+++++++++##++++++",
"+++++++######++++",
"+++++##########++",
"+++++++++++++++++",
"+++++++++++++++++",
"+++++++++++++++++",
"+++++++++++++++++"};
