/* XPM */
static char * inplay_xpm[] = {
"33 34 235 2",
"  	c None",
". 	c #DCDAD5",
"+ 	c #D8D7CC",
"@ 	c #E2DA9C",
"# 	c #E9DA6F",
"$ 	c #EDD652",
"% 	c #EBD63C",
"& 	c #EAD22C",
"* 	c #E9CF36",
"= 	c #E1CA3C",
"- 	c #DECA50",
"; 	c #D6C86C",
"> 	c #D8CE94",
", 	c #DEDAB2",
"' 	c #EADC7C",
") 	c #F8DA39",
"! 	c #F2D63C",
"~ 	c #F2DA3A",
"{ 	c #F2D237",
"] 	c #E7CA34",
"^ 	c #E2C634",
"/ 	c #DEC234",
"( 	c #D2D2CC",
"_ 	c #EADE9C",
": 	c #FADE37",
"< 	c #F5DE51",
"[ 	c #F0D22C",
"} 	c #DCBE32",
"| 	c #D0C684",
"1 	c #EEDE74",
"2 	c #FAE229",
"3 	c #F6DA26",
"4 	c #EACE28",
"5 	c #E9C639",
"6 	c #D2BA54",
"7 	c #D0BC70",
"8 	c #F8E246",
"9 	c #F9DE29",
"0 	c #F2DA29",
"a 	c #F1D628",
"b 	c #E5C22F",
"c 	c #D6B634",
"d 	c #D0B644",
"e 	c #D2CEB2",
"f 	c #F6D621",
"g 	c #E6CA2C",
"h 	c #DBBA2F",
"i 	c #CFAE2F",
"j 	c #C6AE54",
"k 	c #F3DA56",
"l 	c #F1D222",
"m 	c #CAAA2C",
"n 	c #E5C626",
"o 	c #D1B237",
"p 	c #C2A244",
"q 	c #BAB294",
"r 	c #F2D650",
"s 	c #FAE642",
"t 	c #DCBA22",
"u 	c #CBA62F",
"v 	c #C39E32",
"w 	c #CECAB1",
"x 	c #F6D63A",
"y 	c #FAEA84",
"z 	c #FEF4A8",
"A 	c #FEF294",
"B 	c #FAEA6C",
"C 	c #FAEE84",
"D 	c #F9ED97",
"E 	c #F6E464",
"F 	c #EECE26",
"G 	c #BAAA6C",
"H 	c #EACA26",
"I 	c #E2C654",
"J 	c #BEAE3C",
"K 	c #867A34",
"L 	c #5E5A34",
"M 	c #4E4A39",
"N 	c #423E2C",
"O 	c #42422C",
"P 	c #726E4C",
"Q 	c #B6AE6C",
"R 	c #C6BA7C",
"S 	c #8E8654",
"T 	c #666254",
"U 	c #5E5214",
"V 	c #726614",
"W 	c #A28E14",
"X 	c #B4961F",
"Y 	c #BE9E24",
"Z 	c #C5A224",
"` 	c #BC9A22",
" .	c #AE922C",
"..	c #F0CE37",
"+.	c #BEA620",
"@.	c #7E7224",
"#.	c #564E24",
"$.	c #76725C",
"%.	c #ACAAA8",
"&.	c #787874",
"*.	c #323231",
"=.	c #1E1E1C",
"-.	c #1B1A14",
";.	c #262624",
">.	c #3E3E3C",
",.	c #9A924C",
"'.	c #8E8A64",
").	c #827E5C",
"!.	c #6A6A60",
"~.	c #52524C",
"{.	c #16140C",
"].	c #373212",
"^.	c #4A3E14",
"/.	c #7C661C",
"(.	c #9C8240",
"_.	c #AE8E2C",
":.	c #EAD674",
"<.	c #524610",
"[.	c #232223",
"}.	c #2A2A2B",
"|.	c #2E2E2C",
"1.	c #727274",
"2.	c #5E5E5C",
"3.	c #221E14",
"4.	c #B48E24",
"5.	c #AE9E6C",
"6.	c #EED258",
"7.	c #6A5A14",
"8.	c #625614",
"9.	c #4A4A4C",
"0.	c #3C3A34",
"a.	c #867624",
"b.	c #BA9420",
"c.	c #AE8A1C",
"d.	c #AA924C",
"e.	c #6C5E18",
"f.	c #B29A1C",
"g.	c #585648",
"h.	c #F2EDB7",
"i.	c #5E5A44",
"j.	c #6A5E2C",
"k.	c #9E8A1C",
"l.	c #C29624",
"m.	c #A68634",
"n.	c #EECA38",
"o.	c #8E7A1C",
"p.	c #96861C",
"q.	c #D6D2B2",
"r.	c #FCF6CC",
"s.	c #FAF2BC",
"t.	c #363631",
"u.	c #A68C38",
"v.	c #B49224",
"w.	c #AC8620",
"x.	c #A47E21",
"y.	c #EECA2C",
"z.	c #665A17",
"A.	c #A6A284",
"B.	c #EEE27C",
"C.	c #A69A54",
"D.	c #CFAA23",
"E.	c #A5821E",
"F.	c #9A7A34",
"G.	c #DACE6C",
"H.	c #EEE6B4",
"I.	c #A69638",
"J.	c #C6B654",
"K.	c #DAB623",
"L.	c #D2AE22",
"M.	c #CBA621",
"N.	c #9A761F",
"O.	c #E4BE30",
"P.	c #DECE44",
"Q.	c #CEC264",
"R.	c #C2B654",
"S.	c #9A8A24",
"T.	c #5A4E0C",
"U.	c #A4921C",
"V.	c #CAAB1F",
"W.	c #DEBE1E",
"X.	c #D6B624",
"Y.	c #C49E22",
"Z.	c #DECA74",
"`.	c #EAC624",
" +	c #BEB244",
".+	c #957F14",
"++	c #86760C",
"@+	c #D4BA1C",
"#+	c #E4C220",
"$+	c #D5B223",
"%+	c #9E761C",
"&+	c #9E8E60",
"*+	c #DEB630",
"=+	c #E2BA2C",
"-+	c #D6BE24",
";+	c #E2BE21",
">+	c #A07A1F",
",+	c #946E1A",
"'+	c #AEA68C",
")+	c #DAB230",
"!+	c #8E6A19",
"~+	c #D6AE2C",
"{+	c #9A8A64",
"]+	c #D2AA2C",
"^+	c #D6AE24",
"/+	c #AE9214",
"(+	c #94721C",
"_+	c #C2BEB4",
":+	c #EACE54",
"<+	c #423A14",
"[+	c #3E360C",
"}+	c #866A14",
"|+	c #A88E18",
"1+	c #9C7F16",
"2+	c #AA7E1C",
"3+	c #9A721C",
"4+	c #8B6619",
"5+	c #CAAA4C",
"6+	c #CAA224",
"7+	c #957A14",
"8+	c #926A18",
"9+	c #92763C",
"0+	c #C49A24",
"a+	c #8C6F14",
"b+	c #957618",
"c+	c #C4C2B4",
"d+	c #9A7A1A",
"e+	c #826514",
"f+	c #BABAA4",
"g+	c #B28A1C",
"h+	c #BAA664",
"i+	c #C6C6B4",
"j+	c #BEB68C",
"k+	c #B29E64",
"l+	c #B2AE8C",
". . . . . . . . . . . . . . . . . . . . . . . . . . . . . . . . . ",
". . . . . . . . . . . . . . . . . . . . . . . . . . . . . . . . . ",
". . . . . . . . . . . + @ # $ % & * = - ; > + . . . . . . . . . . ",
". . . . . . . . . , ' ) ) ! ~ % { * * ] = ^ / ; ( . . . . . . . . ",
". . . . . . . . _ : : < : ) ) ~ ! [ & * ] = ^ / } | . . . . . . . ",
". . . . . . , 1 : : 2 : : : ) ) 3 ~ { [ 4 ] 5 ^ } 6 7 ( . . . . . ",
". . . . . + ) : : : 8 9 9 9 9 9 0 0 a % a & ] ^ b } c d e . . . . ",
". . . . , < : ) : : 9 : 9 9 9 9 9 9 3 f [ [ & g ^ } h i j ( . . . ",
". . . . k ) : : : 9 9 2 2 9 9 9 9 9 9 0 a l [ 4 g / } c m j . . . ",
". . . ' ) ) : ) 9 9 2 9 9 2 2 9 9 9 3 9 3 0 l 4 g n } c o p q . . ",
". . + r ) ) : 3 : 9 8 s s 2 2 2 2 2 9 8 8 < ~ [ g n } t o u v w . ",
". . # x ) ) 3 9 9 8 y z z A s 2 2 8 B C D y E ~ F g b t o m v G . ",
". + x { { H I J K L M N O P Q E 8 B D R S T L L U V W X Y Z `  .+ ",
". @ { ..+.@.#.$.%.&.*.=.-.;.>.L ,.'.).M !.~.;.{.{.{.].^.L /.(._.q ",
". :.{ ..<.].;.!.%.&.*.=.-.=.=.[.}.}.|.>.1.2.|.=.[.=.[.;.}.3. .4.5.",
". 6...x 7.8.[.*.9.0.;.=.[.[.;.}.'.'.}.[.*.}.[.[.[.;.;.|.a.^.b.c.d.",
". ....{ e.f.<.[.=.[.=.=.[.;.}.g.h.h.i.[.=.=.[.[.[.;.;.j.k.#.l._.m.",
". n.n.[ o.[ p.<.{.-.=.[.;.;.*.q.r.s.| t.;.=.[.;.;.}.|.u.u 7.v.w.x.",
". n.n.y.[ [ [ J z.t.[.*.9.T A.r.r.s.B.C.>.}.;.}.*.M K D.D.v 4.E.F.",
". 5 5 y...F l l l & a 0 & G._ H.H.D $ p.e.V e.I.J.d K.L.M.` _.E.N.",
". I O.b y.y.l l a f 0 0 a P.Q.Q Q R.S.T.e.U.W V.W.t X.D.Y.b.w.F.(.",
". Z.O.b `.y.H F F a f f 0 % P. +I.U..++++.W.@+#+#+t $+M.` 4.x.%+&+",
". > *+=+O.#+`.H F F a l f f a & -+-+@+n 4 H n ;+t $+D.Z b.w.>+,+'+",
". + )+*+t O.#+`.`.F 4 l l l a a & 4 H F H `.;+t $+L.Z l.4.E.N.!+( ",
". . 7 ~+)+t ;+#+#+`.H 4 [ ~ k k k ~ 4 n #+W.L.V.M.Z ` v.w.>+,+{+. ",
". . e ]+~+^+)+t ;+#+#+] $ 6.$ $ $ * n #+W.V.X /+/+/+v.w.x.(+!+_+. ",
". . . 7 u ]+L.$+K.t =+n :+o 8.<+[+[+].}+$+|+1+E.w.w.w.2+3+4+&+. . ",
". . . . 5+6+6+]+^+$+K.K.} $+|+7+7+1+7+f.` 1+(+7+7+x.>+N.8+9+. . . ",
". . . . e v 0+6+M.]+^+^+^+^+$+$+L.M.M.b.7+}+a+b+b+>+b+,+!+c+. . . ",
". . . . . w Y.0+Y.Y.6+6+Z /+E.d+7+7+7+a+e+e+a+,+(+,+8+4+f+. . . . ",
". . . . . . e p l.l.l.l.l.c.1+(+a+}+a+}+e+}+,+!+,+8+9+c+. . . . . ",
". . . . . . . . j g+4.4.g+c.w.1+d+b+(+,+}+!+!+!+4+&+. . . . . . . ",
". . . . . . . . . w h+w.w.w.2+>+>+%+b+3+,+!+4+{+i+. . . . . . . . ",
". . . . . . . . . . . + j+k+u.2+3+(+N.(.&+l+( . . . . . . . . . . "};
