/* XPM */
static char * pressed_xpm[] = {
"33 36 239 2",
"  	c None",
". 	c #DCDAD5",
"+ 	c #C3C2BC",
"@ 	c #A9A9AA",
"# 	c #777672",
"$ 	c #565654",
"% 	c #454544",
"& 	c #3B3A34",
"* 	c #666234",
"= 	c #AA9E40",
"- 	c #E8D254",
"; 	c #E8CE3D",
"> 	c #DECC44",
", 	c #AE9E44",
"' 	c #7A723C",
") 	c #5A563C",
"! 	c #6A6A6C",
"~ 	c #9E9E9C",
"{ 	c #B0B0B0",
"] 	c #CECECC",
"^ 	c #D5D5CF",
"/ 	c #A2A28C",
"( 	c #727274",
"_ 	c #4C4C4A",
": 	c #343431",
"< 	c #1C1C0C",
"[ 	c #221E04",
"} 	c #36321C",
"| 	c #5A4E0C",
"1 	c #8E822C",
"2 	c #887A34",
"3 	c #7A6E24",
"4 	c #4C4620",
"5 	c #6A6654",
"6 	c #524E44",
"7 	c #242210",
"8 	c #17160E",
"9 	c #161208",
"0 	c #1D1D1C",
"a 	c #807E74",
"b 	c #242424",
"c 	c #2B2B2C",
"d 	c #5D5D5C",
"e 	c #8E7E2C",
"f 	c #8A8A8C",
"g 	c #A29E7C",
"h 	c #56522C",
"i 	c #ECD62C",
"j 	c #F9DB37",
"k 	c #665E2C",
"l 	c #F3DA56",
"m 	c #A98A1A",
"n 	c #D5BE24",
"o 	c #F9DE25",
"p 	c #D8C234",
"q 	c #A28E3C",
"r 	c #C6AE54",
"s 	c #F4DE64",
"t 	c #C0B248",
"u 	c #3D3611",
"v 	c #6E6A4C",
"w 	c #FAE22A",
"x 	c #514D34",
"y 	c #CAAA4C",
"z 	c #D2AA2C",
"A 	c #EADE8C",
"B 	c #F5D638",
"C 	c #F6DA26",
"D 	c #ECD640",
"E 	c #DAC64C",
"F 	c #EAD674",
"G 	c #F5E367",
"H 	c #F5E247",
"I 	c #FAE23E",
"J 	c #F1DA3A",
"K 	c #DEC644",
"L 	c #D6BE44",
"M 	c #DDBE24",
"N 	c #D5B81E",
"O 	c #D2B234",
"P 	c #BEB68C",
"Q 	c #DEDAB4",
"R 	c #FBEB72",
"S 	c #FAE654",
"T 	c #F5EA9F",
"U 	c #F6E384",
"V 	c #E4C32C",
"W 	c #DEC228",
"X 	c #DDB92D",
"Y 	c #CBAE37",
"Z 	c #C2A244",
"` 	c #D0CCB2",
" .	c #FEEE8C",
"..	c #FEF298",
"+.	c #C6BA64",
"@.	c #665E14",
"#.	c #665A0C",
"$.	c #C6B21F",
"%.	c #524E2C",
"&.	c #A69E60",
"*.	c #D2B229",
"=.	c #CBA72D",
"-.	c #BE9E2C",
";.	c #B8AC6C",
">.	c #FAEE9C",
",.	c #8E864C",
"'.	c #0D0D04",
").	c #8A7E14",
"!.	c #BEAA24",
"~.	c #F6E69C",
"{.	c #CAA22C",
"].	c #BC9A21",
"^.	c #B69228",
"/.	c #E2DA9C",
"(.	c #F5D239",
"_.	c #FBEE81",
":.	c #2B260C",
"<.	c #A7962F",
"[.	c #EEDA2C",
"}.	c #F0E280",
"|.	c #D2AE24",
"1.	c #C39E32",
"2.	c #F5D624",
"3.	c #F9EC93",
"4.	c #EADC5C",
"5.	c #CBBA37",
"6.	c #E6D658",
"7.	c #DBCA54",
"8.	c #DACE84",
"9.	c #EED254",
"0.	c #EACA26",
"a.	c #E3C223",
"b.	c #CBA622",
"c.	c #B18E25",
"d.	c #B09E68",
"e.	c #F0CE3A",
"f.	c #FAE634",
"g.	c #FAEA54",
"h.	c #CEC264",
"i.	c #C5B338",
"j.	c #E4C622",
"k.	c #C6A62C",
"l.	c #BA961F",
"m.	c #B28A1C",
"n.	c #AA924C",
"o.	c #F2CE2C",
"p.	c #FDF5B4",
"q.	c #F2EAB0",
"r.	c #D6CA64",
"s.	c #A89014",
"t.	c #A18E1C",
"u.	c #C6AA1C",
"v.	c #DCB823",
"w.	c #A68638",
"x.	c #EECA38",
"y.	c #F2D226",
"z.	c #FEFACC",
"A.	c #E2D67C",
"B.	c #867614",
"C.	c #5C5214",
"D.	c #B29A14",
"E.	c #E2BE21",
"F.	c #D7B229",
"G.	c #B4961C",
"H.	c #A17E24",
"I.	c #DECE64",
"J.	c #FDF6C9",
"K.	c #7E720C",
"L.	c #4E460C",
"M.	c #928218",
"N.	c #CDAA21",
"O.	c #AE8624",
"P.	c #9A7A34",
"Q.	c #EAC644",
"R.	c #EAC530",
"S.	c #EECE26",
"T.	c #EED224",
"U.	c #EEE6B4",
"V.	c #706210",
"W.	c #9E8A14",
"X.	c #9C7620",
"Y.	c #E2C654",
"Z.	c #BEB270",
"`.	c #D2AA24",
" +	c #C4A121",
".+	c #BC9220",
"++	c #A07A20",
"@+	c #9A8240",
"#+	c #DECA74",
"$+	c #E5BE2F",
"%+	c #A29224",
"&+	c #927E14",
"*+	c #C0A618",
"=+	c #A18218",
"-+	c #9D8C62",
";+	c #E2BA2C",
">+	c #C59924",
",+	c #96731E",
"'+	c #AEA68C",
")+	c #D6AE2C",
"!+	c #EAC621",
"~+	c #F5DE57",
"{+	c #EED239",
"]+	c #CCAF1C",
"^+	c #A88220",
"/+	c #A9861D",
"(+	c #8B6619",
"_+	c #CEBA74",
":+	c #DEC61C",
"<+	c #9A8721",
"[+	c #4A3E0F",
"}+	c #443A0C",
"|+	c #906E14",
"1+	c #9A7E14",
"2+	c #907315",
"3+	c #987A18",
"4+	c #966E18",
"5+	c #D6D2B4",
"6+	c #C2AE3C",
"7+	c #362E0C",
"8+	c #887214",
"9+	c #7D6314",
"0+	c #876B14",
"a+	c #8F6A1D",
"b+	c #B2921C",
"c+	c #765D14",
"d+	c #CAA224",
"e+	c #90743C",
"f+	c #9A8214",
"g+	c #846314",
"h+	c #7B5D14",
"i+	c #BABAA4",
"j+	c #8A6214",
"k+	c #C2AE74",
"l+	c #B68A24",
"m+	c #A67E1E",
"n+	c #B6A264",
"o+	c #B6AE8C",
"p+	c #9E9A91",
". . . . . . . . . . . . . . . . . . . . . . . . . . . . . . . . . ",
". . . . . . . . . . . . . . . . . . . . . . . . . . . . . . . . . ",
". . . . . . + @ # $ % & & * = - ; ; > , ' ) $ $ $ ! ~ { + ] ^ ^ . ",
". . . . / ( _ ( @ # : < < [ } | 1 2 3 4 5 6 7 8 9 0 : % ! a { ^ . ",
". . . . % : b ! @ ( : 0 0 0 b b c c c & ( d c 0 0 0 0 b c b + . . ",
". . . . d $ b : _ & b 0 0 b b c e e c b : c b b b b c c f _ . . . ",
". . . . d g 4 7 b 0 0 b b b b h i j ) b 0 0 b b b b c k / d . . . ",
". . . . a l m 4 9 0 0 b b c : n o o p & b b 0 b b c c q r a . . . ",
". . . . s j j t k u b : % v = o o w o t x c b c : x 2 y z r . . . ",
". . . A B j j C D E E F G H I w o o o C J i D ; K L M N O y P . . ",
". . Q j j j o j o o H R R S w w o o o o o G T U - V W X Y z Z ` . ",
". . F B B j j o C I R  ...+.@.#.$.w w W ' %.&.T U ; V N *.=.-.;.. ",
". . B B B B C o C H  .>...,.'.'.).w w !.9 '.%.T ~.; V M O {.].^.^ ",
". /.(.B B j j C o w _.....&.:.:.<.[.i $.u 9 ' ~.}.; V X |.y 1.^.P ",
". F (.B 2.2.C C C o S R 3.4.5.5.6.4.7.n !.r 8.U 9.0.a.M *.b.-.c.d.",
". 9.e.(.B 2.j C o o o w f.f.g._._.A h.i.$.n $.n 0.j.W X *.k.l.m.n.",
". e.(.o.B 2.C C C o w o o H _...p.q.r.t <.s.t.u.M a.M v.|.k.l.w.w.",
". x.x.(.y.(.2.2.C C o o [.6.>.z.z.p.A.t B.C.@.D.N W E.F.z 1.G.m.H.",
". x.x.x.y.y.2.C C C o [.i I.q.J.J.p.A $.K.L.L.M.N W M F.N.-.c.O.P.",
". Q.R.x.S.o.y.T.2.C C o ; 7./.U.q.3.4.M.#.V.C.W.N M v.|.k.].c.H.X.",
". Y.R.R.x.0.y.y.y.2.C o [.> h.;.Z.t t.| V.s.W.u.E.v.N `. +.+O.++@+",
". #+$+$+V 0.0.S.T.T.2.2.[.[.7.t <.%+&+B.*+a.v.a.E.v.N. +].c.=+X.-+",
". 8.X ;+$+a.0.0.S.S.T.y.2.[.J - p 5.n W S.S.j.E.N *+>+l.c.O.++,+'+",
". ^ )+v.;+E.a.!+0.S.S.T.B ~+G ~+J i {+T.0.a. +]+N.G.W.^+/+H.X.(+^ ",
". . _+)+F.v.;+E.a.0.0.{+l s 4.l D e.:+<+#.[+}+|+].1+2+2+3+X.4+,.. ",
". . 5+z )+)+v.v.E.E.j.; 9.- 6+<.V.7+8 [ :.[+8+1+<+|+9+0+4+,+a++ . ",
". . . _+=.`.|.F.v.v.E.V M.[+9 }+u #.b+F.]+N.s.m 2+9+c+(+a+(+-+. . ",
". . . . y d+b.`.`.`.|.F.:.c+m ]+b. +D.G.b+s.=+,+9+c+c+(+(+e+. . . ",
". . . . ` 1.>+d+b.d+ +d+*+ +l.G.m f+2+2+2+2+0+g+c+c+9+(+a++ . . . ",
". . . . . ` 1.>+>+].>+l.c.m =+3+2+0+0+9+9+h+V.c+h+h+g+a+i+. . . . ",
". . . . . . ` Z >+.+c.c./+=+2+2+|+9+9+9+9+9+g+h+g+j+e++ . . . . . ",
". . . . . . . . k+l+m.m.^+=+m+X.2+8+|+g+g+(+j+0+j+-+. . . . . . . ",
". . . . . . . . . ` n+^+m+m+m+X.X.,+2+,+|+a+(+-++ . . . . . . . . ",
". . . . . . . . . . . ^ P , w.m+,+4+,+H.-+o+^ . . . . . . . . . . ",
". . . . . . . . . . . . . . . . . . . . . . . . . . . . . . . . . ",
"p+p+p+p+p+p+p+p+p+p+p+p+p+p+p+p+p+p+p+p+p+p+p+p+p+p+p+p+p+p+p+p+p+"};
