/* XPM */
static char * badFlags_xpm[] = {
"19 19 6 1",
" 	c None",
".	c #DCDAD5",
"+	c #9E9A91",
"@	c #BAB5AB",
"#	c #000000",
"$	c #FE0204",
"..................+",
"@#@@@@@@@@@@@@@@#@+",
"#@#@@@@@@@@@@@@#@#+",
"@#@#@@@@@@@@@@#@#@+",
"@@#@#@@@@$#@@#@#@@+",
"@@@#@#@$$$#@#@#@@@+",
"@@@@#$#$$$##@#@@@@+",
"@@@$$#$#$$#@#@@@@@+",
"@@@@@$#$####@@@@@@+",
"@@@@@@@####@@@@@@@+",
"@@@@@@@####@@@@@@@+",
"@@@@@@#@####@@@@@@+",
"@@@@@#@#@##@#@@@@@+",
"@@@@#@########@@@@+",
"@@@#@##########@@@+",
"@@#@#@@@@@@@@#@#@@+",
"@#@#@@@@@@@@@@#@#@+",
"#@#@@@@@@@@@@@@#@#+",
"@#@@@@@@@@@@@@@@#@+"};
