/* XPM */
static char * dead_xpm[] = {
"32 33 244 2",
"  	c None",
". 	c #DCDAD5",
"+ 	c #000000",
"@ 	c #DAD6CC",
"# 	c #E2DA9C",
"$ 	c #E8DA74",
"% 	c #E8D658",
"& 	c #ECD63C",
"* 	c #ECD236",
"= 	c #E6CE3C",
"- 	c #E5CA37",
"; 	c #DECA54",
"> 	c #D6CA6C",
", 	c #D8CE94",
"' 	c #D5D5CC",
") 	c #DEDAB2",
"! 	c #EEDE74",
"~ 	c #F4DE54",
"{ 	c #F8DA38",
"] 	c #F5D637",
"^ 	c #E2C634",
"/ 	c #E2C654",
"( 	c #EADE87",
"_ 	c #FADE37",
": 	c #F0DA3A",
"< 	c #EDD228",
"[ 	c #EACE34",
"} 	c #DCC236",
"| 	c #DCBE31",
"1 	c #D2C67C",
"2 	c #DADACC",
"3 	c #F6DA27",
"4 	c #F0DA2C",
"5 	c #D2BA54",
"6 	c #FAE223",
"7 	c #F9DE25",
"8 	c #F4D627",
"9 	c #EECA31",
"0 	c #E3C22D",
"a 	c #D2B644",
"b 	c #CEB23C",
"c 	c #CECAB1",
"d 	c #F4DA54",
"e 	c #EBD62C",
"f 	c #E5CA27",
"g 	c #DCBA2E",
"h 	c #D2CEB2",
"i 	c #B9A219",
"j 	c #EACB27",
"k 	c #D2B22E",
"l 	c #CEAE34",
"m 	c #C6AE54",
"n 	c #EADA7C",
"o 	c #3A360C",
"p 	c #766A11",
"q 	c #9C8A17",
"r 	c #020204",
"s 	c #605610",
"t 	c #161604",
"u 	c #C9B21C",
"v 	c #C1AA1F",
"w 	c #655A11",
"x 	c #CAAE1F",
"y 	c #CBA62E",
"z 	c #BAB294",
"A 	c #0D0C04",
"B 	c #534A0C",
"C 	c #151204",
"D 	c #A69614",
"E 	c #CAB61C",
"F 	c #060604",
"G 	c #CAAA2C",
"H 	c #C49E2A",
"I 	c #4C420C",
"J 	c #C2AE14",
"K 	c #BAA61C",
"L 	c #EFCE2B",
"M 	c #D8B22A",
"N 	c #C2A244",
"O 	c #BAAA6C",
"P 	c #F5D239",
"Q 	c #665E14",
"R 	c #2A2204",
"S 	c #9E8E14",
"T 	c #0A0604",
"U 	c #160E04",
"V 	c #DEC228",
"W 	c #D3AE26",
"X 	c #CAA22C",
"Y 	c #BD9A26",
"Z 	c #B18E27",
"` 	c #363204",
" .	c #CCBA24",
"..	c #FAEA4C",
"+.	c #F4E244",
"@.	c #7A6E14",
"#.	c #423A0C",
"$.	c #E6CE1C",
"%.	c #261E07",
"&.	c #D1B221",
"*.	c #CAAA4C",
"=.	c #BD9E28",
"-.	c #B89224",
";.	c #EAD674",
">.	c #FAE65C",
",.	c #EADC5C",
"'.	c #DCCA4C",
").	c #201604",
"!.	c #927E14",
"~.	c #E3C222",
"{.	c #D8BA1F",
"].	c #CBA622",
"^.	c #AE9E6C",
"/.	c #EED25C",
"(.	c #FCEE84",
"_.	c #CEC264",
":.	c #C6AE20",
"<.	c #E5BE2F",
"[.	c #DEBC22",
"}.	c #B99621",
"|.	c #AA924C",
"1.	c #EECB3F",
"2.	c #FCF2B0",
"3.	c #FEF6B4",
"4.	c #F4EAA0",
"5.	c #DACE74",
"6.	c #BEAE3C",
"7.	c #D8BE1C",
"8.	c #E2BE23",
"9.	c #D8B629",
"0.	c #C6A62C",
"a.	c #C19624",
"b.	c #AE8A1C",
"c.	c #A68634",
"d.	c #FDF6C9",
"e.	c #E2D67C",
"f.	c #C0B240",
"g.	c #867610",
"h.	c #5E520C",
"i.	c #6E5E0C",
"j.	c #B09814",
"k.	c #CDAA22",
"l.	c #AA8624",
"m.	c #A57E22",
"n.	c #F2D226",
"o.	c #DECE64",
"p.	c #F2EAB0",
"q.	c #FEFACC",
"r.	c #EEE27C",
"s.	c #C6B434",
"t.	c #7E720C",
"u.	c #4E460C",
"v.	c #D0B61C",
"w.	c #9C761F",
"x.	c #EAC644",
"y.	c #EAC530",
"z.	c #EEE6B4",
"A.	c #928218",
"B.	c #6E620C",
"C.	c #9A7A34",
"D.	c #DECE44",
"E.	c #B8B06C",
"F.	c #564E14",
"G.	c #A3921C",
"H.	c #A28E14",
"I.	c #E2BA2C",
"J.	c #D2AA29",
"K.	c #9C7A24",
"L.	c #9A8244",
"M.	c #DECA74",
"N.	c #EAC624",
"O.	c #A69634",
"P.	c #BEA614",
"Q.	c #A6821E",
"R.	c #9E8E60",
"S.	c #DEB630",
"T.	c #9E8617",
"U.	c #966E1C",
"V.	c #AEA68C",
"W.	c #361E14",
"X.	c #3D2614",
"Y.	c #3A2A0C",
"Z.	c #462A14",
"`.	c #34220C",
" +	c #3E320C",
".+	c #CAA224",
"++	c #B68E24",
"@+	c #906A1E",
"#+	c #CEBA74",
"$+	c #A24A44",
"%+	c #B44A4C",
"&+	c #A34544",
"*+	c #4E2224",
"=+	c #7A3234",
"-+	c #7E3E2C",
";+	c #9A7E14",
">+	c #AE8624",
",+	c #916E1A",
"'+	c #9A8A64",
")+	c #D6D2B4",
"!+	c #AC4A4B",
"~+	c #C65654",
"{+	c #C65254",
"]+	c #CC5554",
"^+	c #863D3C",
"/+	c #C04E4C",
"(+	c #602C2C",
"_+	c #99721D",
":+	c #8E661C",
"<+	c #C2BEB4",
"[+	c #B94E4C",
"}+	c #D25654",
"|+	c #D65A5C",
"1+	c #763634",
"2+	c #9C4244",
"3+	c #7F3A3C",
"4+	c #5C4C0C",
"5+	c #6B3234",
"6+	c #DC5E5C",
"7+	c #924244",
"8+	c #923E3C",
"9+	c #92763C",
"0+	c #823634",
"a+	c #1A1604",
"b+	c #7A5B14",
"c+	c #C69A24",
"d+	c #6C5A14",
"e+	c #201C04",
"f+	c #BABAA4",
"g+	c #C26E3C",
"h+	c #C05254",
"i+	c #C4C2B4",
"j+	c #C2B074",
"k+	c #72422C",
"l+	c #BAA264",
"m+	c #B65644",
"n+	c #6E3A2C",
"o+	c #C6C6B4",
"p+	c #BA927C",
"q+	c #AE6654",
"r+	c #82522C",
"s+	c #926E3C",
"t+	c #9F9267",
"u+	c #B6AE8C",
". . . . . . . . . . . . . . . . . . . . . . . . . . . . . . . . ",
"+ . + . + . + . + . @ # $ % & * = - ; > , ' + . + . + . + . + . ",
". . . . . . . . ) ! ~ { ] { ] * * = - ^ ^ / > @ . . . . . . . + ",
"+ . . . . . . ( ~ _ _ _ : : { ] * < [ - ^ ^ } | 1 . . . . . . . ",
". . . . . 2 ~ _ _ _ _ _ _ 3 4 4 4 * < [ [ ^ ^ | 5 5 ' . . . . + ",
"+ . . . ) ~ _ _ _ 6 _ 7 _ 7 { 3 3 4 8 < < 9 ^ 0 | a b c . . . . ",
". . . ) d { _ _ _ 7 _ _ 7 7 7 7 7 3 8 e < [ f ^ | g b b h . . + ",
"+ . . d { _ _ _ _ 7 6 6 7 6 7 7 7 7 i i 8 < [ j } g k l m . . . ",
". . n d _ { { _ 7 o p 7 6 q r 7 7 3 s t u < v w x } g l y z . + ",
"+ 2 { ] { _ 3 7 _ u A q B C D 7 6 7 E C A s F C G | g b G H c . ",
". n ] { { 3 _ 7 7 6 I F t J 6 6 7 7 7 K r r I L f 0 g M y N O + ",
"@ P ] { { { 3 3 7 Q r R r D 6 6 6 7 S T r r U V f 0 g W X Y Z ' ",
"# ] ] ] 8 3 7 7 7 ` E 6 p r  ...+.: @.#.$.i A %.j V | &.*.=.-.z ",
";.P P ] { 3 3 3 7 7 6 6 6  .: >.,.'.} f e $.p ).!.~.{.k ].=.Z ^.",
"/.P ] 8 ] 8 3 7 7 7 7 7 6 ..(.(.( _.u J {.&.{.:.x <.[.k X }.Z |.",
"1.L P 8 8 3 3 3 7 7 6 7 6 (.2.3.4.5.6.S q S v 7.~.8.9.&.0.a.b.c.",
"1.9 L P 8 8 8 3 3 7 3 e % 4.d.d.2.e.f.g.h.i.j.{.V [.9.k.H }.l.m.",
"1.9 9 P n.8 8 3 7 7 7 $.o.p.q.d.3.r.s.t.u.u.!.v.V [.M G Y -.c.w.",
"x.y.9 9 L n.8 8 8 3 7 e > ( z.p.4.,.A.w B.h.q {.8.9.W 0.Y b.m.C.",
"/ y.y.9 9 L n.8 8 8 3 4 D._.E.E.f.S F.B.G.H.k.7.I.v.J.H }.l.K.L.",
"M.<.<.N.j L $.< < 8 4 e e '.E.O.G.!.g.P.7.[.~.8.[.W ].=.Z Q.w.R.",
", S.I.<.~.j j L $.n.$.!.w h.s F.u.u.B T.i ~.[.[.v.k.H -.l.K.U.V.",
"@ M S.S.8.8.N.N.j j.r F W.X.Y.%.R Z.Z.`. +T.j.M k..+a.++m.w.@+' ",
"+ #+M M I.I.8.~.x C r Z.$+%+&+*+=+&+&+-+X.r ;+].].=.-.>+w.,+'+. ",
". )+J.W W 9.[.W R r T !+~+{+]+^+!+{+/+!+(+%.R ;+}.-.l.m._+:+<++ ",
"+ . #+].J.W M T.r C X.[+}+|+%+1+%+]+%+2+3+A r 4+Q.b.Q.w.@+R.. . ",
". . . *..+.+J. +r U 5+]+6+|+!+7+{+]+%+8+1+T ).U ,+m.w.@+9+. . + ",
"+ . . h H H .+_+F U 0+}+6+|+%+!+]+]+[+8+1+a+r F b+_+@+:+<+. . . ",
". . . . c H c+H d+r }+}+|+}+{+/+{+/+&+^+(+r e+b+_+,+@+f+. . . + ",
"+ . . . . h N a.-.g+}+]+}+}+]+]+h+[+2+3+(+b+w._+@+9+i+. . . . . ",
". . . . . . . j+++g+h+{+h+{+/+[+%+2+3+5+k+U.,+:+R.. . . . . . + ",
"+ . . . . . . . c l+m+[+%+%+!+&+8+3+5+n+,+:+'+o+. . . . . . . . ",
". + . + . + . + . + )+p+q+2+8+0+1+r+s+t+u+' . + . + . + . + . + "};
