/* XPM */
static char * dontknow_xpm[] = {
"16 17 9 1",
" 	c None",
".	c #BAB5AB",
"+	c #FC0509",
"@	c #000000",
"#	c #FD7376",
"$	c #FFFFFF",
"%	c #717171",
"&	c #AAAAAA",
"*	c #1C1C1C",
"................",
"................",
"................",
".........+@.....",
".......#$$$.....",
".....+$$$$$$$...",
"...+++$$++%$$...",
".....+++++&$$...",
".......+$$$.....",
"........$$$.....",
".........*@.....",
"........$$$.....",
".......*$$$@@...",
".....@@@@@@@@@@.",
"................",
"................",
"................"};
