/* XPM */
static char * start_xpm[] = {
"31 33 244 2",
"  	c None",
". 	c #EEEBE7",
"+ 	c #000000",
"@ 	c #D5D5CF",
"# 	c #CDCDCC",
"$ 	c #C6C6BA",
"% 	c #A9A9AA",
"& 	c #777671",
"* 	c #565653",
"= 	c #454544",
"- 	c #3C3A30",
"; 	c #3F3A1F",
"> 	c #67622B",
", 	c #AE9F29",
"' 	c #EED33C",
") 	c #EDCF25",
"! 	c #E3CC2E",
"~ 	c #B29F33",
"{ 	c #7C723B",
"] 	c #5B5637",
"^ 	c #6A6A6C",
"/ 	c #9E9E9B",
"( 	c #AEAEAB",
"_ 	c #C3C2BA",
": 	c #727274",
"< 	c #4C4C49",
"[ 	c #333230",
"} 	c #1C1C09",
"| 	c #231E00",
"1 	c #373217",
"2 	c #5D4E00",
"3 	c #92811C",
"4 	c #8B7A26",
"5 	c #816A03",
"6 	c #4D4618",
"7 	c #6B6650",
"8 	c #524E41",
"9 	c #262207",
"0 	c #17160B",
"a 	c #16120A",
"b 	c #1D1D1C",
"c 	c #363630",
"d 	c #817E6E",
"e 	c #B2B2B4",
"f 	c #242424",
"g 	c #2B2B2C",
"h 	c #3E3E35",
"i 	c #5D5D5C",
"j 	c #968225",
"k 	c #8A8A8C",
"l 	c #A39E75",
"m 	c #524D2F",
"n 	c #F4D400",
"o 	c #FFE014",
"p 	c #685E2C",
"q 	c #FADB3A",
"r 	c #A18B07",
"s 	c #DCC00A",
"t 	c #FFE001",
"u 	c #F8DC10",
"v 	c #E4C30F",
"w 	c #A68E2C",
"x 	c #D9B31B",
"y 	c #FFDB18",
"z 	c #C5B32B",
"A 	c #6A5B00",
"B 	c #6F6A46",
"C 	c #FFE412",
"D 	c #C6B53D",
"E 	c #D0AA39",
"F 	c #D1AF20",
"G 	c #CBAE42",
"H 	c #EDDF79",
"I 	c #F3D80C",
"J 	c #DBC735",
"K 	c #D1C35B",
"L 	c #DCD291",
"M 	c #E7E2AB",
"N 	c #F4EBA0",
"O 	c #FFEF76",
"P 	c #FDE74B",
"Q 	c #FEE42D",
"R 	c #E5DB7D",
"S 	c #E0D69A",
"T 	c #D5C677",
"U 	c #D0BC61",
"V 	c #D7BB36",
"W 	c #DDB71A",
"X 	c #D3A616",
"Y 	c #BBB28E",
"Z 	c #DADAC9",
"` 	c #FED717",
" .	c #FFED63",
"..	c #FFF396",
"+.	c #FDEF8F",
"@.	c #FFF386",
"#.	c #FFE834",
"$.	c #F9EB8D",
"%.	c #F6E675",
"&.	c #F4D644",
"*.	c #EDCB21",
"=.	c #E1BB10",
"-.	c #D1AB13",
";.	c #CA9E1C",
">.	c #CFCAAC",
",.	c #EFD761",
"'.	c #FEDC04",
").	c #7B7644",
"!.	c #52522E",
"~.	c #ACA261",
"{.	c #DDD36C",
"].	c #F4E366",
"^.	c #ECC30F",
"/.	c #C59E15",
"(.	c #BEA657",
"_.	c #C8BF75",
":.	c #0A0A02",
"<.	c #FFF6A7",
"[.	c #E4DB8A",
"}.	c #E7BB10",
"|.	c #D9B30E",
"1.	c #AF923E",
"2.	c #FDD31B",
"3.	c #FDD802",
"4.	c #D4CB77",
"5.	c #FFEC46",
"6.	c #CEC578",
"7.	c #EDDF8A",
"8.	c #F7DF56",
"9.	c #ECC303",
"0.	c #DAAF08",
"a.	c #BF8E08",
"b.	c #FCE971",
"c.	c #E9DF73",
"d.	c #C4BB70",
"e.	c #C9BA70",
"f.	c #F1DB57",
"g.	c #EABF12",
"h.	c #B88E13",
"i.	c #DDCF6C",
"j.	c #EDE385",
"k.	c #DACE84",
"l.	c #E2CF50",
"m.	c #F2C613",
"n.	c #E9BF05",
"o.	c #CCA207",
"p.	c #C59A0A",
"q.	c #F9CF1B",
"r.	c #FAD405",
"s.	c #AC9921",
"t.	c #AB9318",
"u.	c #CCAF13",
"v.	c #EEC705",
"w.	c #E2B804",
"x.	c #D2A214",
"y.	c #C29607",
"z.	c #B68A06",
"A.	c #F2C62A",
"B.	c #F6CB1B",
"C.	c #EBD745",
"D.	c #FFF6C0",
"E.	c #8A7700",
"F.	c #635500",
"G.	c #6B5F06",
"H.	c #BA9B00",
"I.	c #DCBA00",
"J.	c #D5AB06",
"K.	c #C8A231",
"L.	c #BB9704",
"M.	c #B1860B",
"N.	c #F6CB0D",
"O.	c #FFFAC3",
"P.	c #CBB520",
"Q.	c #7F6F0C",
"R.	c #524601",
"S.	c #968203",
"T.	c #E6BB03",
"U.	c #DEB203",
"V.	c #D3A605",
"W.	c #CB9A05",
"X.	c #C09209",
"Y.	c #B08209",
"Z.	c #F7CF04",
"`.	c #DECB47",
" +	c #F0E6AA",
".+	c #EFDC44",
"++	c #726300",
"@+	c #CDA614",
"#+	c #AC8827",
"$+	c #E8C73E",
"%+	c #BBAC5F",
"&+	c #C1B263",
"*+	c #A58F06",
"=+	c #B08F06",
"-+	c #A88B00",
";+	c #D3B000",
">+	c #A9790B",
",+	c #E2CA63",
"'+	c #F2C705",
")+	c #F2D000",
"!+	c #A6930F",
"~+	c #CAA700",
"{+	c #362D00",
"]+	c #AB7D0C",
"^+	c #A4750B",
"/+	c #E6B615",
"(+	c #877300",
"_+	c #483A03",
":+	c #725F00",
"<+	c #CC9E08",
"[+	c #B6860B",
"}+	c #A27A12",
"|+	c #9D6D0B",
"1+	c #E1B215",
"2+	c #C29F00",
"3+	c #F0CC04",
"4+	c #9F8300",
"5+	c #D2A207",
"6+	c #97690F",
"7+	c #D6BE5C",
"8+	c #564A02",
"9+	c #DAAA06",
"0+	c #996D08",
"a+	c #9D8A5C",
"b+	c #D3CEAF",
"c+	c #DAAA13",
"d+	c #DEAE12",
"e+	c #7C6700",
"f+	c #A1710A",
"g+	c #95650C",
"h+	c #C2BEB1",
"i+	c #AE9300",
"j+	c #B49300",
"k+	c #A18E56",
"l+	c #97752F",
"m+	c #B98E05",
"n+	c #CA960D",
"o+	c #BABAA0",
"p+	c #C6AE68",
"q+	c #B27D07",
"r+	c #A1925E",
"s+	c #C0B684",
"t+	c #9C7210",
"u+	c #A18232",
". . . . . . . . . . . . . . . . . . . . . . . . . . . . . . . ",
"+ . @ @ # $ % & * = - ; > , ' ) ) ! ~ { ] * * * ^ / ( _ # @ @ ",
". . @ / : < : % & [ } } | 1 2 3 4 5 6 7 8 9 0 a b c = ^ d e @ ",
"+ . @ = [ f ^ % & [ b b b f f g g g h : i g b b b b f g f _ . ",
". . . i * f c < - f b b f f g 3 j g f c g f f f f g g k < . . ",
"+ . . i l 6 f b f b f f f g m n o ] b b b f f f f g p / i . . ",
". . . d q r 6 a b b b f g [ s t u v h f f b f f g g w x & . . ",
"+ . . q y y z A c f [ < B , C t t t D m g f g c m 4 E F G . . ",
". . H y y o y I J K L M N O P C t o Q R S L T U V s W x X Y . ",
"+ Z ` y y o o o o  ...+.....@.#.C P O @.+.$.%.&.*.v =.x -.;.>.",
". ,.` y y y '.y Q +.S ).!.~.@. .#. .{.{ m d S ].' ^.=.x X /.(.",
"Z ` ` ` y y t t #.@._.0 :.m <.O P O _.0 :.h [.%.&.^.}.|.X /.1.",
"S 2.2.` 3.y '.t o O 4.- 0 ).@.O 5.%.6.- 0 p 7.8.&.9.s 0.X /.a.",
",.2.` ` '.'.'.t t P %.T _.[.@.b.c.c.R _.d.e.7.f.) ^.g.|.X ;.h.",
"&.2.2.` 3.'.'.t t C 5. .O O O O ].i.4.[.j.k.l.) m.n.=.|.o.p.h.",
"q.2.r.` 3.3.3.t t t t t C O ..<.N i.z s.~ t.u.v v.n.w.|.x.y.z.",
"A.B.q.2.r.3.'.'.'.t t u C.+.D.D.+.R u.E.F.G.H.I.n.n.w.J.K.L.M.",
"B.B.N.r.2.r.3.'.'.t t I {.N D.O.<.j.P.Q.R.R.S.I.s T.U.V.W.X.Y.",
"A.m.B.Z.n r.I 3.'.I '.I `.j.M  +$..+S.A ++F.r w.n.w.0.@+p.#+Y.",
"$+m.m.m.Z.Z.r.3.'.'.'.I ! K %+&+z *+2 ++=+-+;+n.T.w.V.o.y.M.>+",
",+g.g.m.'+)+s )+n 3.n u I ! z s.!+S.E.~+s I.n.5 {+=+V.p.h.]+^+",
"k./+}.^.9.'+n.(+;+3.n 3.'.I ) s I.I.v )+)+*+_+| :+J.<+X.[+}+|+",
"@ 1+/+/+n.9.v.;+Q.:+2+3+)+3.I n )+)+I.4+A a {+A 2+5+p.h.Y.^+6+",
"+ 7+1+1+T.T.n.9.9.r A R.8+A A F.F.8+{+9 {+8+5 9+V.W.X.M.}+0+a+",
". b+c+9+d+/+T.n.9.9.'+~+(+e+e+++:+:+5 e+5 H.V.V.2+X.z.]+f+g+h+",
"+ . U c+J.0.U.w.T.n.9.9.9.w.;+L.i+j+<+o.0.9+o.W.X.[+]+f+6+k+. ",
". . . E x.V.9+U.U.w.w.w.T.T.T.w.w.U.0.0.V.<+W.a.z.]+^+6+l+. . ",
"+ . . b+;.<+5+V.9+9+0.0.U.0.U.0.9+J.5+5+W.X.m+M.]+^+0+g+h+. . ",
". . . . >.;.n+<+5+5+5+5+V.V.5+5+<+<+p.X.m+z.Y.>+^+6+g+o+. . . ",
"+ . . . . b+;.n+n+n+W.n+W.W.y.n+X.a.m+z.M.>+^+|+6+l+_ . . . . ",
". . . . . . . p+a.a.a.a.a.a.a.z.z.M.q+>+^+f+0+g+r+. . . . . . ",
"+ . . . . . . . >.(.[+Y.[+Y.q+>+>+^+^+|+0+g+k+_ . . . . . . . ",
". + . + . + . + . + @ s+~ #+Y.^+f+t+u+r+%+@ . + . + . + . + . "};
