/* XPM */
static char * won_xpm[] = {
"32 33 236 2",
"  	c None",
". 	c #DCDAD5",
"+ 	c #000000",
"@ 	c #D8D7CF",
"# 	c #E1DAA1",
"$ 	c #EAD977",
"% 	c #EAD858",
"& 	c #EAD644",
"* 	c #EED137",
"= 	c #E9CF36",
"- 	c #E2CA3C",
"; 	c #E0C854",
"> 	c #D8CA64",
", 	c #D8CE94",
"' 	c #DEDAB4",
") 	c #EADE7C",
"! 	c #F7DA40",
"~ 	c #F6DA2C",
"{ 	c #F2D83C",
"] 	c #F2D62D",
"^ 	c #E2C634",
"/ 	c #DDC237",
"( 	c #D0D0C8",
"_ 	c #EADE8C",
": 	c #F9DE3D",
"< 	c #F6D630",
"[ 	c #E7CA30",
"} 	c #DCBC32",
"| 	c #D2C67C",
"1 	c #F2DC5C",
"2 	c #FAE229",
"3 	c #FADE31",
"4 	c #F2DA2C",
"5 	c #EBD62F",
"6 	c #EED22A",
"7 	c #EDC93F",
"8 	c #D2BA54",
"9 	c #D0BC70",
"0 	c #EACE2C",
"a 	c #E4C22C",
"b 	c #D6BD21",
"c 	c #D0B238",
"d 	c #F8DE22",
"e 	c #C8AC50",
"f 	c #D6B634",
"g 	c #CAAA2C",
"h 	c #E4D878",
"i 	c #807638",
"j 	c #645614",
"k 	c #534A14",
"l 	c #4E4610",
"m 	c #4C4216",
"n 	c #84761C",
"o 	c #E2CA24",
"p 	c #9E8E1C",
"q 	c #7A6A14",
"r 	c #746414",
"s 	c #6C6214",
"t 	c #8B7917",
"u 	c #B8A21C",
"v 	c #C4A62C",
"w 	c #C4AA2C",
"x 	c #C6A634",
"y 	c #BAB294",
"z 	c #F2CE34",
"A 	c #756A37",
"B 	c #6E6A4C",
"C 	c #94928C",
"D 	c #6C6858",
"E 	c #363418",
"F 	c #2A2204",
"G 	c #221E08",
"H 	c #322E0C",
"I 	c #544E10",
"J 	c #8C7E14",
"K 	c #E2CE24",
"L 	c #DAC61C",
"M 	c #D0B61C",
"N 	c #56522C",
"O 	c #3E3A24",
"P 	c #1A1604",
"Q 	c #524611",
"R 	c #9B821F",
"S 	c #A68A24",
"T 	c #A38D37",
"U 	c #C8C6B4",
"V 	c #252212",
"W 	c #242424",
"X 	c #868284",
"Y 	c #343433",
"Z 	c #151514",
"` 	c #1D1D1C",
" .	c #2B2B2C",
"..	c #3E3E3C",
"+.	c #7E7A74",
"@.	c #44423C",
"#.	c #967E34",
"$.	c #BAAA6C",
"%.	c #F6D23A",
"&.	c #525250",
"*.	c #8A8A87",
"=.	c #5A5A5C",
"-.	c #4B4A46",
";.	c #C49E34",
">.	c #AF9221",
",.	c #6E5E14",
"'.	c #B2A63C",
").	c #B99A24",
"!.	c #BE9A22",
"~.	c #B69222",
"{.	c #5C562E",
"].	c #FAE65C",
"^.	c #EADE5C",
"/.	c #56523C",
"(.	c #72622C",
"_.	c #B18E25",
":.	c #B09E68",
"<.	c #EED25C",
"[.	c #453C0C",
"}.	c #CEC264",
"|.	c #FAEE94",
"1.	c #B2A654",
"2.	c #D1AE28",
"3.	c #AF8A1C",
"4.	c #AA924C",
"5.	c #EECE44",
"6.	c #E9C62E",
"7.	c #746E48",
"8.	c #FEF6B4",
"9.	c #F4EAA0",
"0.	c #DACE74",
"a.	c #665E3C",
"b.	c #5C5840",
"c.	c #322A0C",
"d.	c #A68634",
"e.	c #3C3608",
"f.	c #3A3624",
"g.	c #928A44",
"h.	c #FDF6C9",
"i.	c #FCF2B0",
"j.	c #C4B438",
"k.	c #4E4A39",
"l.	c #DBB628",
"m.	c #A47E20",
"n.	c #BEA224",
"o.	c #6E663C",
"p.	c #C6AE20",
"q.	c #F1E9B1",
"r.	c #7E720C",
"s.	c #E3BE29",
"t.	c #5A4E24",
"u.	c #7A6214",
"v.	c #92763C",
"w.	c #9A7A34",
"x.	c #9E9A84",
"y.	c #76724C",
"z.	c #5A4A0C",
"A.	c #928016",
"B.	c #93761A",
"C.	c #5E4E0C",
"D.	c #6E5A14",
"E.	c #C39A1E",
"F.	c #9A7722",
"G.	c #EAC234",
"H.	c #EECA30",
"I.	c #B2AEA0",
"J.	c #B6AE8C",
"K.	c #7E7A5C",
"L.	c #968E64",
"M.	c #9D936C",
"N.	c #A69E6C",
"O.	c #A69A54",
"P.	c #7A6E14",
"Q.	c #4A463C",
"R.	c #BB961F",
"S.	c #AC8620",
"T.	c #9E823C",
"U.	c #DECA74",
"V.	c #E6E6E4",
"W.	c #C3C2BB",
"X.	c #BABAA4",
"Y.	c #605E56",
"Z.	c #4E4E44",
"`.	c #7F7F7D",
" +	c #787874",
".+	c #A6821F",
"++	c #9E761C",
"@+	c #9E8E60",
"#+	c #E1DEDC",
"$+	c #EBEBE6",
"%+	c #E3E2E1",
"&+	c #ADADAC",
"*+	c #A3A3A1",
"=+	c #807E6C",
"-+	c #898682",
";+	c #C5A221",
">+	c #A17A1F",
",+	c #936E1A",
"'+	c #AEA68C",
")+	c #DAB230",
"!+	c #DEBA24",
"~+	c #B1961C",
"{+	c #BBBBB9",
"]+	c #906A1F",
"^+	c #D6AE27",
"/+	c #D6C21C",
"(+	c #867E64",
"_+	c #C9C7C4",
":+	c #B6961C",
"<+	c #C59E24",
"[+	c #BA921C",
"}+	c #9A8A64",
"|+	c #D4D0B4",
"1+	c #D2AA28",
"2+	c #D6B326",
"3+	c #747058",
"4+	c #9A721C",
"5+	c #C2BEB4",
"6+	c #CCA624",
"7+	c #BE9E2C",
"8+	c #8E661C",
"9+	c #A29E94",
"0+	c #B78E1F",
"a+	c #CAA226",
"b+	c #866E14",
"c+	c #7A725C",
"d+	c #A48614",
"e+	c #AC811E",
"f+	c #CECAB0",
"g+	c #967220",
"h+	c #B4B4B0",
"i+	c #C29624",
"j+	c #C2B074",
"k+	c #BAA664",
"l+	c #BEB68C",
"m+	c #A2925C",
". . . . . . . . . . . . . . . . . . . . . . . . . . . . . . . . ",
"+ . + . + . + . + . @ # $ % & * = - ; > , @ + . + . + . + . + . ",
". . . . . . . . ' ) ! ~ { { ] & = = - ^ ^ / > ( . . . . . . . + ",
"+ . . . . . . _ : : : : ~ ! < ] * * = [ - / ^ } | . . . . . . . ",
". . . . . ' 1 : : 2 : ~ 3 ~ ~ 4 4 5 6 = [ 7 / / 8 9 ( . . . . + ",
"+ . . . ' 1 : ! : 2 : 3 3 3 3 ~ ~ ] 6 5 6 0 ^ a } b c ( . . . . ",
". . . ' ! 3 ! 3 3 3 2 3 d d d d d 4 ~ 6 6 0 [ ^ } } c e ( . . + ",
"+ . . $ ! : 3 : 3 3 2 2 2 d 3 d d ~ ~ ] ] 0 0 [ / } f g e . . . ",
". . h ! ~ ! / i j k l m n b 2 d d d o p q r r s t u v w x y . + ",
"+ @ z 7 v A B C D E F G H I J K L M j N O P P P P Q j R S T U . ",
". $ * n V W X ( C Y Z Z Z ` V  . . ...C +.Y ` Z ` Z W  .@.#.$.+ ",
"@ %.%.} l W &.*.=.Y W W W W  . . .Y ..&.-.W W W W  . . .A ;.>.@ ",
"# { { ] ,.W  .Y  .W ` W W W  .'.'. .` W ` W W W W W  .>.).!.~.y ",
"$ z %.] u k V ` ` ` ` W W W {.].^./.W W ` W W W W  .(.T x !._.:.",
"<.z ] %.4 n [.Z ` ` W W  . .}.|.) 1.Y ` ` ` W W  .W T 2.x !.3.4.",
"5.z 6.w < 5 q V ` ` W W  .7.8.8.9.0.a.Y W W W  .Y b.w R c.3.d.d.",
"7 a j e.] < 4 b s W W f.g.|.h.h.i.h j.{...Y ..k.i l.l.m.H m 3.m.",
"7 n.m o.Q t p.4 ~ 4 d 6 0.q.h.h.i._ j.r.k m J M s.n.r t.u.v.d.w.",
"7 6.6.).o.x.y.z.A.u b 5 > # q.q.9.% A.j ,.j B.t C.m /.D.E.3.m.F.",
"; G.6.H.r I.@ @ J.K.o.l i L.M.N.O.P.[.e.[.F H k.Q.=.m >.R.S.w.T.",
"U.s.G.a 6.[.@ V.V.+.W.V.( X.*.Y.Y.Z.@.Y.Z.`. +-.@.k.B.E.3..+++@+",
", l.s.s.a b {.#+$+ +W.V.%+#+&+&.&+*+*+=+Y -+ +-.-.C.;+R.S.>+,+'+",
"@ )+)+!+s.s.~+=+$+ +W.V.V.#+`. +W.{+&+`. .-+`.&.m ;+R._.m.F.]+( ",
"+ 9 ^+)+!+s./+~+(+`.W.$+V.#+`. +_+{+&+`.O *.`.m :+<+[+S.++,+}+. ",
". |+1+1+2+l.l.!+~+3+W.V.V.%+`. +_+{+&+-+..-+m >.E.~.S.m.4+]+5++ ",
"+ . 9 6+1+^+2+l.!+>.7.#+V.%+ + +W.{+&+X &.Q R.7+[+3.m.F.8+M.. . ",
". . . x <+6+1+2.2+2+).e.9+@ `. +W.{+*+3+z.~+!.0+S.m.++]+v.. . + ",
"+ . . ( ;.<+a+6+1+2.2.^+b+E Y.B c+b.[.b+E.[+0+d+e+++]+]+5+. . . ",
". . . . f+E.E.<+<+a+6+6+6+a+d+t B.d+R.:+0+3.e+>+g+]+]+h+. . . + ",
"+ . . . . |+;.i+[+i+R.R.E.E.i+R.[+[+3.S.d+>+++,+]+v.U . . . . . ",
". . . . . . . j+0+0+[+0+0+0+_.3.3.e+e+m.++4+,+8+M.. . . . . . + ",
"+ . . . . . . . f+k+e+S.e+e+e+m.>+++4+,+,+8+@+W.. . . . . . . . ",
". + . + . + . + . + ' l+:.S m.4+g+F.R m+$.@ . + . + . + . + . + "};
