/* XPM */
static char * duiIcon_xpm[] = {
"18 24 29 1",
" 	c None",
".	c #FFFFFF",
"+	c #000000",
"@	c #17231B",
"#	c #16245D",
"$	c #16141C",
"%	c #0E1C4C",
"&	c #3E76E2",
"*	c #030306",
"=	c #07051F",
"-	c #3D72E1",
";	c #0E0534",
">	c #0C0D3B",
",	c #58251E",
"'	c #0C0308",
")	c #F54E4C",
"!	c #180B0D",
"~	c #070C22",
"{	c #3CE83C",
"]	c #391C16",
"^	c #14050C",
"/	c #040B08",
"(	c #270D12",
"_	c #151437",
":	c #370B18",
"<	c #160D20",
"[	c #260511",
"}	c #362326",
"|	c #0C0C0E",
"..................",
".........+........",
"........@+#+......",
".......$%&*&*.....",
".....*=--***&*....",
"....*&-**--**-#;..",
"..*>--**----*-&-*.",
".+,-&**----**---*'",
".+)!&&***-**&&-~{*",
".+))]^--***&-/*{{*",
".+)*)!(&&-&_*{{{{*",
".+)*)):*<**{{**{{*",
".+)*))))**{{**{{{*",
".+)*))*))*{{{*{{{*",
".+)*))*))*{{{*{{{*",
".+)*))*))*{{{*{{{*",
".+))*)*))*{{{**{{*",
".+))**+))*{{**{{**",
"..+))++))*{{*{{+..",
"...+[))))*{{{{*...",
"....+')))*{{/}....",
".....+|))*{*......",
".......|**+.......",
".........*........"};
