/* XPM */
static char * duiLogo_12_xpm[] = {
"45 24 313 2",
"  	c None",
". 	c #3A3A3A",
"+ 	c #282828",
"@ 	c #000000",
"# 	c #161616",
"$ 	c #180000",
"% 	c #030000",
"& 	c #000200",
"* 	c #000208",
"= 	c #000309",
"- 	c #000001",
"; 	c #A10000",
"> 	c #F00000",
", 	c #BE0000",
"' 	c #AA0000",
") 	c #7F0000",
"! 	c #430000",
"~ 	c #060000",
"{ 	c #020B00",
"] 	c #0E4900",
"^ 	c #177900",
"/ 	c #187E00",
"( 	c #1A8900",
"_ 	c #1FA500",
": 	c #26C900",
"< 	c #115D00",
"[ 	c #001951",
"} 	c #004CF9",
"| 	c #0046E4",
"1 	c #003ABD",
"2 	c #0037B4",
"3 	c #002B8C",
"4 	c #001137",
"5 	c #151515",
"6 	c #101010",
"7 	c #B90000",
"8 	c #FF0000",
"9 	c #F80000",
"0 	c #DC0000",
"a 	c #9C0000",
"b 	c #570000",
"c 	c #160000",
"d 	c #070707",
"e 	c #041400",
"f 	c #0A3600",
"g 	c #146800",
"h 	c #24BE00",
"i 	c #2FF900",
"j 	c #30FF00",
"k 	c #28D600",
"l 	c #126000",
"m 	c #001A54",
"n 	c #004EFF",
"o 	c #0042D8",
"p 	c #00267B",
"q 	c #001C5B",
"r 	c #00133D",
"s 	c #00040E",
"t 	c #CA0000",
"u 	c #F60000",
"v 	c #FE0000",
"w 	c #E30000",
"x 	c #BB0000",
"y 	c #020401",
"z 	c #2ADD00",
"A 	c #30FE00",
"B 	c #27CD00",
"C 	c #30FD00",
"D 	c #0E4B00",
"E 	c #0C3E00",
"F 	c #001952",
"G 	c #001953",
"H 	c #001E61",
"I 	c #002C8F",
"J 	c #003ABE",
"K 	c #004BF5",
"L 	c #004DFC",
"M 	c #000614",
"N 	c #BA0000",
"O 	c #EC0000",
"P 	c #100000",
"Q 	c #200000",
"R 	c #4B0000",
"S 	c #7C0000",
"T 	c #D60000",
"U 	c #280000",
"V 	c #2EF700",
"W 	c #010700",
"X 	c #29DA00",
"Y 	c #0C4200",
"Z 	c #0A3800",
"` 	c #00123B",
" .	c #002271",
"..	c #000E2E",
"+.	c #002E96",
"@.	c #BD0000",
"#.	c #210000",
"$.	c #460000",
"%.	c #0D0000",
"&.	c #150000",
"*.	c #780000",
"=.	c #FD0000",
"-.	c #FC0000",
";.	c #062100",
">.	c #031200",
",.	c #29D800",
"'.	c #0A3400",
").	c #105500",
"!.	c #041500",
"~.	c #003FCE",
"{.	c #003BC2",
"].	c #004CFA",
"^.	c #000A20",
"/.	c #D40000",
"(.	c #FB0000",
"_.	c #120000",
":.	c #450000",
"<.	c #F50000",
"[.	c #B70000",
"}.	c #840000",
"|.	c #0F0000",
"1.	c #710000",
"2.	c #F90000",
"3.	c #090606",
"4.	c #051C00",
"5.	c #041600",
"6.	c #25C700",
"7.	c #00309E",
"8.	c #0043DC",
"9.	c #000E2F",
"0.	c #ED0000",
"a.	c #4C0000",
"b.	c #1E0000",
"c.	c #C40000",
"d.	c #070000",
"e.	c #C80000",
"f.	c #0E0000",
"g.	c #051900",
"h.	c #082900",
"i.	c #22B200",
"j.	c #2FF800",
"k.	c #010600",
"l.	c #040404",
"m.	c #001648",
"n.	c #004DFD",
"o.	c #000715",
"p.	c #1B0000",
"q.	c #B80000",
"r.	c #082B00",
"s.	c #093000",
"t.	c #21AD00",
"u.	c #0E4D00",
"v.	c #072700",
"w.	c #000207",
"x.	c #004EFE",
"y.	c #0033A6",
"z.	c #000104",
"A.	c #004BF7",
"B.	c #004CF7",
"C.	c #A80000",
"D.	c #1C0000",
"E.	c #360000",
"F.	c #870000",
"G.	c #230000",
"H.	c #082D00",
"I.	c #0C4100",
"J.	c #1D9B00",
"K.	c #0B3B00",
"L.	c #093100",
"M.	c #146B00",
"N.	c #0C0C0C",
"O.	c #00050F",
"P.	c #0037B5",
"Q.	c #560000",
"R.	c #1D0000",
"S.	c #760000",
"T.	c #600000",
"U.	c #3B0000",
"V.	c #092E00",
"W.	c #0F4E00",
"X.	c #1C9600",
"Y.	c #136300",
"Z.	c #00267C",
"`.	c #0045E2",
" +	c #0034AC",
".+	c #004DFA",
"++	c #550000",
"@+	c #740000",
"#+	c #680000",
"$+	c #340000",
"%+	c #1A8B00",
"&+	c #167600",
"*+	c #031100",
"=+	c #092F00",
"-+	c #0032A2",
";+	c #0035AD",
">+	c #0040D0",
",+	c #000510",
"'+	c #1F0000",
")+	c #750000",
"!+	c #170000",
"~+	c #177800",
"{+	c #105600",
"]+	c #061E00",
"^+	c #0039BB",
"/+	c #002884",
"(+	c #880000",
"_+	c #540000",
":+	c #AE0000",
"<+	c #1C9500",
"[+	c #061F00",
"}+	c #0032A5",
"|+	c #004DFB",
"1+	c #00030B",
"2+	c #620000",
"3+	c #050000",
"4+	c #F40000",
"5+	c #EA0000",
"6+	c #E80000",
"7+	c #220000",
"8+	c #20A800",
"9+	c #002372",
"0+	c #0043DA",
"a+	c #000615",
"b+	c #3D0000",
"c+	c #930000",
"d+	c #C00000",
"e+	c #A00000",
"f+	c #2A0000",
"g+	c #2EF400",
"h+	c #198500",
"i+	c #002371",
"j+	c #000819",
"k+	c #3F0000",
"l+	c #AB0000",
"m+	c #C90000",
"n+	c #010000",
"o+	c #8E0000",
"p+	c #2DF100",
"q+	c #072400",
"r+	c #0A3500",
"s+	c #1B9100",
"t+	c #146A00",
"u+	c #020D00",
"v+	c #2ADE00",
"w+	c #157200",
"x+	c #0033A7",
"y+	c #003CC4",
"z+	c #000511",
"A+	c #640000",
"B+	c #990000",
"C+	c #820000",
"D+	c #4D0000",
"E+	c #350000",
"F+	c #D20000",
"G+	c #2BE400",
"H+	c #0A3700",
"I+	c #030D00",
"J+	c #030E00",
"K+	c #28D300",
"L+	c #002D93",
"M+	c #002F99",
"N+	c #00184E",
"O+	c #000F32",
"P+	c #020000",
"Q+	c #AC0000",
"R+	c #E40000",
"S+	c #0A0000",
"T+	c #030F00",
"U+	c #002988",
"V+	c #0039B9",
"W+	c #000102",
"X+	c #000716",
"Y+	c #001442",
"Z+	c #002476",
"`+	c #0045E1",
" @	c #0041D5",
".@	c #A20000",
"+@	c #C50000",
"@@	c #EF0000",
"#@	c #8A0000",
"$@	c #6B0000",
"%@	c #020A00",
"&@	c #0D4300",
"*@	c #136800",
"=@	c #115C00",
"-@	c #2BE300",
";@	c #126200",
">@	c #004EFD",
",@	c #0048ED",
"'@	c #0037B3",
")@	c #001E64",
"!@	c #00040F",
"~@	c #B20000",
"{@	c #040000",
"]@	c #010400",
"^@	c #093200",
"/@	c #136600",
"(@	c #27D100",
"_@	c #002579",
":@	c #0049EF",
"<@	c #001F66",
"[@	c #000D2B",
"}@	c #250000",
"|@	c #2D0000",
"1@	c #0B0000",
"2@	c #000100",
"3@	c #051B00",
"4@	c #001034",
"5@	c #001D5E",
"6@	c #00040C",
"7@	c #030303",
"8@	c #090909",
". +                                                     @ @ # @ @                         ",
"@ $ % @ @ @                                   @ @ @ @ @ & @ @ * = - @ @ @                 ",
"@ ; > , ' ) ! ~ @ @                   @ @ { ] ^ / ( _ : < @ @ [ } | 1 2 3 4 @ 5 6         ",
"@ 7 8 8 8 8 8 9 0 a b c @ @ @ d @ e f g h i j j k h j j l @ @ m n n n n n n o p q r s @ d ",
"@ t 8 u v 8 8 8 8 8 8 v w x $ y z A B C j j j j D E j j l @ @ F n n n G H I J K n n L o M ",
"@ N O P Q R S T 8 8 8 8 8 8 U @ V j W X j j j j Y E j j Z @ @ ` n n n  ...@ @ +.n n n n M ",
"@ @.w @ #.$.%.@ &.*.=.8 8 -.%.;.A j >.,.j j j j '.).j j !.@ @ H n n n n ~.@ {.].n n n n ^.",
"@ /.(._.:.8 <.[.}.|.1.8 8 2.3.4.j j 5.6.j j j j '.).j A >.@ @ 7.n n n n ~.@ 8.n n n n n 9.",
"@ 0.8 a.b.8 8 8 8 c.d.e.8 v f.g.j j h.i.j j j j '.).j j.k.l.@ m.n n n n J @ 8.n n n n n.o.",
"@ /.8 b p.8 8 8 8 8 Q q.8 8 _.r.j j s.t.j j j j '.u.j j v.@ + w.x.n n n y.z.A.n n n n B.@ ",
"@ C.8 b D.8 8 8 8 8 E.F.8 8 G.H.j j I.J.j j j j K.L.j j M.@ N.O.x.n n n P.@ 8.n n n n B.- ",
"@ ; 8 Q.R.8 8 8 8 8 S.T.8 8 U.V.j j W.X.j j j j M.>.j j Y.@ @ Z.n n n n `.-  +n n n n .+= ",
"@ x 8 ++b.8 8 8 8 8 @+#+8 8 $+H.j j W.%+j j j j &+*+j j =+@ @ -+n n n n ;+@ >+n n n n x.,+",
"@ [.8 ++'+8 8 8 8 8 b )+8 8 !+V.j j ~+{+j j j j Y g.j j ]+@ @ ^+n n n n /+,+].n n n n n.s ",
"@ (+8 _+p.8 8 8 8 2._.:+8 -.%.& j.j <+Y j j j j [+Y.j j V.@ @ }+n n n n 2 @ 8.n n n n |+1+",
"@ 2+8 2+3+4+8 8 8 5+@ 6+8 8 7+]+A j 8+s.j j j A g.M.j j V.@ @ 9+n n n n ~.@ 0+n n n n n a+",
"@ b+8 c+@ d+8 8 =.e+|.2.8 8 f+'.j j i.g.g+j j 6.@ h+j j Z @ @ i+n n n n o @ {.n n n n n j+",
"@ k+8 l+@ 7 8 m+b+n+o+8 8 8 k+[+j j p+q+r+s+t+u+>.v+j j w+@ @ x+n n n n >+@ y+n n n n x.z+",
"@ A+8 B+@ C+D+n+E+F+8 8 8 v #.>.j j j G+H+I+J+D K+j j j ^ @ @ L+n n L M+N+@ O+}+n n n .+= ",
"@ *.8 ' @ P+U.Q+v 8 8 8 =.R+S+T+g+j j j j C C j j j j j ^ @ @ U+n n V+W+X+Y+Z+`+n n. @+.z.",
"@ .@8 <.+@@@8 8 R+#@$@R |.@   @ %@&@Y.*@=@X.-@j j j j j ;@@ @ U+n n >@,@n K '@)@4 !@@     ",
"@ S 8 v 6+~@C+D+{@@                   @ @ @ ]@^@/@J.(@j Y @ @ _@n :@-+<@[@- @             ",
"@ }@|@1@P+@                                   @ @ @ 2@3@%@@ @ 4@5@6@@                     ",
"7@@                                                   @ @ 8@@ @                           "};
