/* XPM */
static char * duiLogo_8_xpm[] = {
"60 32 383 2",
"  	c None",
". 	c #4D4D4D",
"+ 	c #6B6B6B",
"@ 	c #000000",
"# 	c #262626",
"$ 	c #1D0000",
"% 	c #750000",
"& 	c #3D0000",
"* 	c #0B0000",
"= 	c #020900",
"- 	c #0A3600",
"; 	c #001A54",
"> 	c #001850",
", 	c #001139",
"' 	c #00030B",
") 	c #000001",
"! 	c #2E0000",
"~ 	c #FF0000",
"{ 	c #FC0000",
"] 	c #E50000",
"^ 	c #D70000",
"/ 	c #A10000",
"( 	c #6A0000",
"_ 	c #190000",
": 	c #010800",
"< 	c #0B3A00",
"[ 	c #198500",
"} 	c #1FA400",
"| 	c #1FA200",
"1 	c #22B700",
"2 	c #24C000",
"3 	c #2AE000",
"4 	c #2FFB00",
"5 	c #28D500",
"6 	c #003CC5",
"7 	c #004EFF",
"8 	c #004DFD",
"9 	c #004BF4",
"0 	c #004AF1",
"a 	c #003CC3",
"b 	c #00267C",
"c 	c #00081B",
"d 	c #010101",
"e 	c #0D0D0D",
"f 	c #070707",
"g 	c #4D0000",
"h 	c #EC0000",
"i 	c #C80000",
"j 	c #880000",
"k 	c #420000",
"l 	c #070000",
"m 	c #101010",
"n 	c #051C00",
"o 	c #115B00",
"p 	c #22B400",
"q 	c #2EF400",
"r 	c #30FF00",
"s 	c #27D200",
"t 	c #30FD00",
"u 	c #0039BC",
"v 	c #001B57",
"w 	c #001033",
"x 	c #000716",
"y 	c #0F0F0F",
"z 	c #600000",
"A 	c #F10000",
"B 	c #BD0000",
"C 	c #6B0000",
"D 	c #310000",
"E 	c #020202",
"F 	c #0E4C00",
"G 	c #1E9E00",
"H 	c #26CA00",
"I 	c #2CEA00",
"J 	c #177D00",
"K 	c #21AD00",
"L 	c #004DFB",
"M 	c #0033A7",
"N 	c #003ECC",
"O 	c #004AF2",
"P 	c #003BC2",
"Q 	c #002C8F",
"R 	c #001952",
"S 	c #590000",
"T 	c #B60000",
"U 	c #B30000",
"V 	c #EE0000",
"W 	c #DF0000",
"X 	c #1EA100",
"Y 	c #157000",
"Z 	c #23B800",
"` 	c #126100",
" .	c #20A800",
"..	c #26CC00",
"+.	c #0038B6",
"@.	c #003ABC",
"#.	c #000205",
"$.	c #000D2B",
"%.	c #001C5B",
"&.	c #003BC0",
"*.	c #DE0000",
"=.	c #040000",
"-.	c #150000",
";.	c #400000",
">.	c #970000",
",.	c #F30000",
"'.	c #1E9F00",
").	c #010700",
"!.	c #167600",
"~.	c #105500",
"{.	c #1C9600",
"].	c #0032A3",
"^.	c #004CF7",
"/.	c #002475",
"(.	c #00184D",
"_.	c #000105",
":.	c #00226E",
"<.	c #003ABF",
"[.	c #4E0000",
"}.	c #D30000",
"|.	c #100000",
"1.	c #050000",
"2.	c #260000",
"3.	c #810000",
"4.	c #FA0000",
"5.	c #C10000",
"6.	c #26CB00",
"7.	c #041700",
"8.	c #0D4500",
"9.	c #25C600",
"0.	c #157100",
"a.	c #003ECB",
"b.	c #000614",
"c.	c #000B22",
"d.	c #0041D4",
"e.	c #004BF5",
"f.	c #003DC8",
"g.	c #F40000",
"h.	c #020000",
"i.	c #D50000",
"j.	c #FD0000",
"k.	c #630000",
"l.	c #3C0000",
"m.	c #060000",
"n.	c #5B0000",
"o.	c #FE0000",
"p.	c #9F0000",
"q.	c #0B0B0B",
"r.	c #29DA00",
"s.	c #146C00",
"t.	c #000819",
"u.	c #000C27",
"v.	c #0044DF",
"w.	c #7A0000",
"x.	c #390000",
"y.	c #950000",
"z.	c #500000",
"A.	c #840000",
"B.	c #AF0000",
"C.	c #24BF00",
"D.	c #072400",
"E.	c #0F5000",
"F.	c #125E00",
"G.	c #000B23",
"H.	c #004DFC",
"I.	c #0042D9",
"J.	c #940000",
"K.	c #770000",
"L.	c #F90000",
"M.	c #3B0000",
"N.	c #F80000",
"O.	c #0B3C00",
"P.	c #0D4400",
"Q.	c #105400",
"R.	c #060606",
"S.	c #002F9B",
"T.	c #0049F0",
"U.	c #000206",
"V.	c #740000",
"W.	c #780000",
"X.	c #800000",
"Y.	c #BF0000",
"Z.	c #2ADE00",
"`.	c #0C4000",
" +	c #0C4100",
".+	c #24C200",
"++	c #198600",
"@+	c #2E2E2E",
"#+	c #001C5D",
"$+	c #0044DD",
"%+	c #00319F",
"&+	c #4C0000",
"*+	c #790000",
"=+	c #870000",
"-+	c #D90000",
";+	c #C70000",
">+	c #092E00",
",+	c #1FA500",
"'+	c #23BB00",
")+	c #2F2F2F",
"!+	c #0046E6",
"~+	c #001543",
"{+	c #2C0000",
"]+	c #730000",
"^+	c #BB0000",
"/+	c #E30000",
"(+	c #2BE500",
"_+	c #061E00",
":+	c #136500",
"<+	c #188100",
"[+	c #2EF600",
"}+	c #002B8C",
"|+	c #004CFA",
"1+	c #000208",
"2+	c #0033A6",
"3+	c #7B0000",
"4+	c #7C0000",
"5+	c #2ADF00",
"6+	c #146800",
"7+	c #1C9500",
"8+	c #27D000",
"9+	c #000719",
"0+	c #004BF6",
"a+	c #001137",
"b+	c #0046E5",
"c+	c #0035AD",
"d+	c #4F0000",
"e+	c #720000",
"f+	c #F00000",
"g+	c #051900",
"h+	c #1E9D00",
"i+	c #000E2D",
"j+	c #0047E9",
"k+	c #00040E",
"l+	c #0038B8",
"m+	c #540000",
"n+	c #710000",
"o+	c #7D0000",
"p+	c #E80000",
"q+	c #930000",
"r+	c #010400",
"s+	c #2DEE00",
"t+	c #187F00",
"u+	c #29DC00",
"v+	c #188200",
"w+	c #167300",
"x+	c #001545",
"y+	c #0032A4",
"z+	c #001B59",
"A+	c #380000",
"B+	c #7E0000",
"C+	c #A80000",
"D+	c #AD0000",
"E+	c #B80000",
"F+	c #24C100",
"G+	c #23BA00",
"H+	c #0A3400",
"I+	c #1A8D00",
"J+	c #001647",
"K+	c #0C0000",
"L+	c #700000",
"M+	c #510000",
"N+	c #0A0000",
"O+	c #1EA000",
"P+	c #26C900",
"Q+	c #1FA700",
"R+	c #082900",
"S+	c #2AE200",
"T+	c #1B9200",
"U+	c #000C29",
"V+	c #00040C",
"W+	c #0037B2",
"X+	c #580000",
"Y+	c #350000",
"Z+	c #D40000",
"`+	c #25C300",
" @	c #1D9800",
".@	c #072800",
"+@	c #2BE400",
"@@	c #000102",
"#@	c #0048EC",
"$@	c #003BC1",
"%@	c #B20000",
"&@	c #460000",
"*@	c #2CE800",
"=@	c #2DED00",
"-@	c #1B8E00",
";@	c #000100",
">@	c #2CE900",
",@	c #0047E7",
"'@	c #000512",
")@	c #003DC7",
"!@	c #A40000",
"~@	c #010000",
"{@	c #D00000",
"]@	c #640000",
"^@	c #E90000",
"/@	c #2BE600",
"(@	c #020A00",
"_@	c #092F00",
":@	c #000309",
"<@	c #004AF3",
"[@	c #000F30",
"}@	c #AA0000",
"|@	c #E40000",
"1@	c #850000",
"2@	c #080000",
"3@	c #F50000",
"4@	c #072600",
"5@	c #146D00",
"6@	c #115A00",
"7@	c #041500",
"8@	c #010300",
"9@	c #20AD00",
"0@	c #2EF500",
"a@	c #00133E",
"b@	c #000717",
"c@	c #00040F",
"d@	c #0038B9",
"e@	c #CC0000",
"f@	c #1F0000",
"g@	c #120000",
"h@	c #160000",
"i@	c #B10000",
"j@	c #198700",
"k@	c #062300",
"l@	c #21B200",
"m@	c #00091F",
"n@	c #003ABD",
"o@	c #002A8B",
"p@	c #001443",
"q@	c #002C92",
"r@	c #860000",
"s@	c #EF0000",
"t@	c #2BE300",
"u@	c #23B900",
"v@	c #22B600",
"w@	c #2FFC00",
"x@	c #001F67",
"y@	c #000104",
"z@	c #002E97",
"A@	c #0D0000",
"B@	c #1C0000",
"C@	c #4B0000",
"D@	c #C00000",
"E@	c #9E0000",
"F@	c #146B00",
"G@	c #2DF000",
"H@	c #002477",
"I@	c #001546",
"J@	c #00216D",
"K@	c #002D92",
"L@	c #0043DB",
"M@	c #0037B5",
"N@	c #001340",
"O@	c #CF0000",
"P@	c #6D0000",
"Q@	c #430000",
"R@	c #330000",
"S@	c #0F0000",
"T@	c #031000",
"U@	c #082D00",
"V@	c #0C3E00",
"W@	c #062100",
"X@	c #082C00",
"Y@	c #2FF800",
"Z@	c #0044DE",
"`@	c #00123A",
" #	c #090000",
".#	c #900000",
"+#	c #340000",
"@#	c #188000",
"##	c #0039BA",
"$#	c #00277E",
"%#	c #AC0000",
"&#	c #610000",
"*#	c #242424",
"=#	c #072300",
"-#	c #105800",
";#	c #000103",
">#	c #0043DC",
",#	c #003DC9",
"'#	c #001D5F",
". +                                                                         @ @ # @ @                                   ",
"@ @ @ @ @ @                                                       @ @ @ @ @ @ @ @ @ @ @ @ @ @                           ",
"@ $ % & * @ @ @ @ @ @                                     @ @ @ @ @ @ @ = - @ @ @ @ ; > , ' ) @ @ @ @ @                 ",
"@ ! ~ ~ { ] ^ / ( _ @ @ @ @ @                     @ @ @ : < [ } | 1 2 3 4 5 @ @ @ @ 6 7 7 8 9 0 a b c @ d e f @         ",
"@ g ~ ~ ~ ~ ~ ~ ~ ~ h i j k l @ @ @ @   m @ @ @ @ n o p q r r r 4 s t r r 5 @ @ @ @ 6 7 7 7 7 7 7 7 8 u v w x ) @ @ @ y ",
"@ z ~ ~ ~ ~ ~ ~ ~ ~ ~ ~ ~ ~ A B j C D @ E F G H I r r r r r r r J @ K r r 5 @ @ @ @ 6 7 7 7 L M N L 7 7 7 7 7 O P Q R @ ",
"@ S ~ ~ T U V ~ ~ ~ ~ ~ ~ ~ ~ ~ ~ ~ W @ @ X r r Y Z r r r r r r ` @  .r r ..@ @ @ @ +.7 7 7 @.@ @ #.$.%.a 7 7 7 7 7 &.@ ",
"@ g ~ *.=.@ @ -.;.>.,.~ ~ ~ ~ ~ ~ ~ W @ @ '.r r ).!.r r r r r r ~.@  .r r {.@ @ @ @ ].7 7 7 ^./.(._.@ @ :.7 7 7 7 7 <.@ ",
"@ [.~ }.@ @ |.1.@ @ @ 2.3.4.~ ~ ~ ~ 5.@ @ 6.r r 7.!.r r r r r r 8.@ 9.r r 0.@ @ @ @ a.7 7 7 7 7 7 b.c.d.e.7 7 7 7 7 f.@ ",
"@ C ~ g.h.@ i.j.B k.l.m.@ n.o.~ ~ ~ p.q.@ r.r r 7.s.r r r r r r 8.@ 9.r r 0.@ @ @ t.L 7 7 7 7 7 7 b.u.7 7 7 7 7 7 7 v.@ ",
"@ w.~ ~ x.@ y.~ ~ ~ ~ A z.@ A.~ ~ ~ B.@ @ C.r r D.E.r r r r r r 8.@ 9.r r F.@ d @ G.H.7 7 7 7 7 7 b.u.7 7 7 7 7 7 7 I.@ ",
"@ J.~ ~ ( @ K.~ ~ ~ ~ ~ L.M.h.N.~ ~ B @ @ 6.r r O.P.r r r r r r 8.@ 9.r r Q.@ R.@ @ S.7 7 7 7 7 T.U.u.7 7 7 7 7 7 7 +.@ ",
"@ % ~ ~ V.@ W.~ ~ ~ ~ ~ ~ X.@ N.~ ~ Y.@ @ Z.r r `. +r r r r r r 8.@ .+r r ++@ @ @+@ #+7 7 7 7 7 $+@ R 7 7 7 7 7 7 7 %+@ ",
"@ &+~ ~ V.@ *+~ ~ ~ ~ ~ ~ =+@ -+~ ~ ;+@ @ Z.r r F >+r r r r r r 8.@ ,+r r '+@ @ )+@ #+7 7 7 7 7 !+@ ~+7 7 7 7 7 7 7 %+@ ",
"d {+~ ~ ]+@ w.~ ~ ~ ~ ~ ~ ^+@ J.~ ~ /+@ @ (+r r ` _+r r r r r r :+@ <+r r [+@ @ @ @ }+7 7 7 7 7 |+1+' e.7 7 7 7 7 7 2+@ ",
"@ {+~ ~ ]+@ 3+~ ~ ~ ~ ~ ~ L.=.4+~ ~ g.@ @ 5+r r 6+_+r r r r r r 7+@ s.r r 8+@ @ @ 9+0+7 7 7 7 7 7 a+@ b+7 7 7 7 7 7 c+@ ",
"@ d+~ ~ e+@ 4+~ ~ ~ ~ ~ ~ f+@ =+~ ~ h @ @ Z.r r 6+g+r r r r r r h+@ s.r r h+@ @ @ i+7 7 7 7 7 7 j+b.k+7 7 7 7 7 7 7 l+@ ",
"@ m+~ ~ n+@ o+~ ~ ~ ~ ~ ~ p+@ q+~ ~ }.@ r+s+r r t+@ u+r r r r r v+@ s.r r w+@ @ @ x+7 7 7 7 7 7 y+@ z+7 7 7 7 7 7 7 <.@ ",
"@ A+~ ~ n+@ B+~ ~ ~ ~ ~ ~ C+@ D+~ ~ E+@ @ F+r r G+@ C.r r r r r H+@ 7+r r I+@ @ @ > 7 7 7 7 7 7 <.@ J+7 7 7 7 7 7 7 c+@ ",
"@ K+g.~ L+@ K.~ ~ ~ ~ ~ ~ M+N+h ~ ~ E+@ @ O+r r P+@ Q+r r r r r R+@ S+r r T+@ @ @ U+7 7 7 7 7 7 9 V+u.7 7 7 7 7 7 7 W+@ ",
"@ @ *.~ B+@ X+~ ~ ~ ~ ~ ~ & Y+~ ~ ~ Z+@ @ `+r r u+@  @r r r r r .@@ +@r r T+@ @ @ @@#@7 7 7 7 7 7 b.u.7 7 7 7 7 7 7 $@@ ",
"@ @ %@~ p.@ _ ~ ~ ~ ~ ~ ~ $ &@~ ~ ~ Z+@ @ *@r r =@@ -@r r r r =@r+;@>@r r T+@ @ @ @ ,@7 7 7 7 7 7 b.'@7 7 7 7 7 7 7 )@@ ",
"@ @ !@~ ] @ ~@V ~ ~ ~ {@]@@ j ~ ~ ~ ^@@ @ /@r r q (@_@3 r r q o @ _@r r r G+@ @ @ :@<@7 7 7 7 7 7 [@) 0+7 7 7 7 7 7 <.@ ",
"@ @ }@~ W ~@m.g.~ |@1@2@@ ;.3@~ ~ ~ f+@ @ H r r r I+@ 4@5@6@7@@ 8@9@r r r 0@@ @ @ a@7 7 7 7 7 7 0+b@c@L 7 7 7 7 7 7 d@@ ",
"@ @ i.~ e@@ f@i W.g@@ h@i@j.~ ~ ~ ~ Z+@ @ C.r r r r j@@ @ @ @ k@l@r r r r [+@ @ @ m@7 7 7 7 H.n@o@@ x p@q@7 7 7 7 7 c+@ ",
"@ @ ^@~ i.@ @ @ @ 1.r@s@~ ~ ~ ~ ~ ~ U @ @ C.r r r r r t@u@v@H w@r r r r r [+@ @ @ ' 7 7 7 7 x@@ @ @ @ y@z@7 7 7 7 7 c+@ ",
"@ -.4.~ f+A@B@C@q+V ~ ~ ~ ~ ~ ,.D@E@X+@ @ F@6.t r r r r r r r r r r r r r G@@ @ @ ' 7 7 7 7 H@I@J@K@)@0+7 7 L@M@b N@:@@ ",
"@ ! ~ ~ ~ 4.~ ~ ~ ~ ~ O@P@Q@R@S@@ @ @   @ @ @ T@U@V@W@X@:+p Y@r r r r r r 5 @ @ @ ' 7 7 7 7 7 7 7 L Z@o@`@1+@ @ @       ",
"@  #N.~ ~ ~ ~ |@i@.#+#@ @ @ @                   @ @ @ @ @ @ 7@F @#p *@r r v@@ @ @ U.e.7 7 O ##$#p@' @ @ @               ",
"@ @ %#j &#m+B@@ @ @                                       *#@ @ @ @ @ =#Y -#@ @ @ ;#>#,#'#V+@ @ @                       ",
"@ @ @ @ @ @                                                       @ @ @ @ @ @ @ @ @ @ @ @                               ",
"R.@                                                                       @ @ m @ @                                     "};
