/* XPM */
static char * duiLogo_16_xpm[] = {
"30 16 224 2",
"  	c None",
". 	c #272727",
"+ 	c #000000",
"@ 	c #050505",
"# 	c #0A0A0A",
"$ 	c #130000",
"% 	c #AC0000",
"& 	c #7B0000",
"* 	c #5E0000",
"= 	c #230000",
"- 	c #041600",
"; 	c #0F4E00",
"> 	c #105600",
", 	c #146800",
"' 	c #198400",
") 	c #002F9A",
"! 	c #002C90",
"~ 	c #00257A",
"{ 	c #001951",
"] 	c #000308",
"^ 	c #151515",
"/ 	c #2B0000",
"( 	c #FF0000",
"_ 	c #ED0000",
": 	c #B20000",
"< 	c #6D0000",
"[ 	c #3F0000",
"} 	c #110000",
"| 	c #071B03",
"1 	c #115A00",
"2 	c #188100",
"3 	c #25C300",
"4 	c #2FFC00",
"5 	c #30FF00",
"6 	c #1C9200",
"7 	c #2CEA00",
"8 	c #0045E2",
"9 	c #004EFF",
"0 	c #0047E8",
"a 	c #004AF1",
"b 	c #0049EE",
"c 	c #0032A2",
"d 	c #002882",
"e 	c #001A54",
"f 	c #020A1C",
"g 	c #2A0000",
"h 	c #F70000",
"i 	c #5B0000",
"j 	c #800000",
"k 	c #B50000",
"l 	c #FC0000",
"m 	c #700000",
"n 	c #105500",
"o 	c #146900",
"p 	c #092D00",
"q 	c #28D400",
"r 	c #29D800",
"s 	c #0041D6",
"t 	c #002A8A",
"u 	c #000716",
"v 	c #000A22",
"w 	c #003ECC",
"x 	c #00226E",
"y 	c #2E0000",
"z 	c #F10000",
"A 	c #010000",
"B 	c #7A0000",
"C 	c #480000",
"D 	c #1A0000",
"E 	c #760000",
"F 	c #5B0303",
"G 	c #157000",
"H 	c #0D4400",
"I 	c #062200",
"J 	c #2BE300",
"K 	c #23B800",
"L 	c #000206",
"M 	c #002A89",
"N 	c #002987",
"O 	c #004DFD",
"P 	c #002579",
"Q 	c #430000",
"R 	c #290000",
"S 	c #C30000",
"T 	c #FB0000",
"U 	c #610000",
"V 	c #9F0000",
"W 	c #5C0000",
"X 	c #0B3D00",
"Y 	c #20AC00",
"Z 	c #010101",
"` 	c #000309",
" .	c #0046E5",
"..	c #002D93",
"+.	c #002372",
"@.	c #300000",
"#.	c #3A0000",
"$.	c #BC0000",
"%.	c #C10000",
"&.	c #740000",
"*.	c #680000",
"=.	c #167600",
"-.	c #0C3E00",
";.	c #29D900",
">.	c #27D000",
",.	c #171717",
"'.	c #0035AE",
").	c #002271",
"!.	c #0032A5",
"~.	c #001C5B",
"{.	c #160000",
"].	c #390000",
"^.	c #BD0000",
"/.	c #450000",
"(.	c #7E0000",
"_.	c #177800",
":.	c #0C4100",
"<.	c #23BB00",
"[.	c #2DF100",
"}.	c #0045E0",
"|.	c #002B8E",
"1.	c #001E61",
"2.	c #BE0000",
"3.	c #F50000",
"4.	c #470000",
"5.	c #770000",
"6.	c #177C00",
"7.	c #0C4000",
"8.	c #2EF600",
"9.	c #0E4800",
"0.	c #22B500",
"a.	c #25C400",
"b.	c #00091D",
"c.	c #002068",
"d.	c #002F99",
"e.	c #00216B",
"f.	c #380000",
"g.	c #690000",
"h.	c #620000",
"i.	c #125E00",
"j.	c #126100",
"k.	c #041700",
"l.	c #2ADD00",
"m.	c #25C700",
"n.	c #00091E",
"o.	c #002270",
"p.	c #002F9B",
"q.	c #001F64",
"r.	c #E40000",
"s.	c #9C0000",
"t.	c #960000",
"u.	c #9E0000",
"v.	c #710000",
"w.	c #157200",
"x.	c #167200",
"y.	c #26C900",
"z.	c #2FFB00",
"A.	c #020B00",
"B.	c #2EF300",
"C.	c #26C800",
"D.	c #000001",
"E.	c #004BF4",
"F.	c #D30000",
"G.	c #F80000",
"H.	c #970000",
"I.	c #DF0000",
"J.	c #820000",
"K.	c #167300",
"L.	c #1FA200",
"M.	c #0E4D00",
"N.	c #21B100",
"O.	c #115900",
"P.	c #0A3800",
"Q.	c #2CEB00",
"R.	c #000512",
"S.	c #004DFC",
"T.	c #002C8F",
"U.	c #002780",
"V.	c #EF0000",
"W.	c #240000",
"X.	c #630000",
"Y.	c #EB0000",
"Z.	c #136600",
"`.	c #1D9A00",
" +	c #115C00",
".+	c #177A00",
"++	c #2CEC00",
"@+	c #00030A",
"#+	c #002A88",
"$+	c #000B23",
"%+	c #000717",
"&+	c #003ECA",
"*+	c #001E63",
"=+	c #FE0000",
"-+	c #990000",
";+	c #E00000",
">+	c #F30000",
",+	c #AB0000",
"'+	c #8D0000",
")+	c #220000",
"!+	c #062100",
"~+	c #1C9300",
"{+	c #25C600",
"]+	c #30FD00",
"^+	c #000205",
"/+	c #0035AF",
"(+	c #003ABE",
"_+	c #002067",
":+	c #00133F",
"<+	c #020000",
"[+	c #CB0000",
"}+	c #AD0000",
"|+	c #570000",
"1+	c #080808",
"2+	c #051900",
"3+	c #198300",
"4+	c #1E9F00",
"5+	c #000102",
"6+	c #0046E6",
"7+	c #002E97",
"8+	c #00184F",
"9+	c #000819",
"0+	c #020202",
"a+	c #040404",
". +                                 @ + # +                 ",
"$ % & * = +               + - ; > , ' + + ) ! ~ { ] ^       ",
"/ ( ( ( ( _ : < [ } | 1 2 3 4 5 6 7 7 + + 8 9 0 a b c d e f ",
"g h i j k l ( ( ( m n 5 o 5 5 5 p q r + + s 9 t u v w 9 9 x ",
"y z A B C D E ( ( F G 5 H 5 5 5 I J K + L a 9 9 M N O 9 9 P ",
"Q ( R S ( T U V ( W o 5 X 5 5 5 I J Y Z `  .9 9 d ..9 9 9 +.",
"@.( #.$.( ( %.&.( *.=.5 -.5 5 5 I ;.>.+ ,.'.9 9 ).!.9 9 9 ~.",
"{.( ].^.( ( _ /.( (._.5 :.5 5 5 -.<.[.+ L }.9 9 |.P 9 9 9 1.",
"R ( ].2.( ( 3.4.( 5.6.5 7.8.5 5 9.0.a.+ b.9 9 9 c.d.9 9 9 e.",
"} l f.^.( ( 2.g.( h.i.5 j.;.5 5 k.l.m.+ n.9 9 9 o.p.9 9 9 q.",
"+ r.4.s.( ( t.u.( v.w.5 x.y.5 z.A.B.C.+ D.E.9 9 t |.9 9 9 o.",
"+ F.v.& G.H.R I.( J.K.5 L.M.N.O.P.5 Q.+ R.S.9 9 T.U.9 9 9 e.",
"+ V.*.#.W.X.Y.( ( m Z.5 5 `. +.+++5 z.+ @+9 9 #+$+%+&+9 9 *+",
"} =+2.-+;+>+,+'+W )+!+=.`.~+{+]+5 5 [.+ ^+9 9 /+(+&+! _+:+  ",
"<+[+}+j |+$               + 1+2+M.3+4++ 5+6+7+8+9++         ",
"0++                               + + a++ +                 "};
