/* XPM */
static char * gtk_logo_rgb_small_xpm[] = {
"32 42 6 1",
" 	c None",
".	c #FEFEFE",
"+	c #000000",
"@	c #0000FF",
"#	c #FF0000",
"$	c #00FF00",
"................................",
"................................",
"................................",
"...............+++++............",
".............+++@@++............",
"...........+++@@@@@@++..........",
"..........++@@@@@@@@@++.........",
"........+++@@+++++++@@+++.......",
"......+++@@+++++++++++@@@++.....",
"....+++@@@+++@@@@@@+++@@@@@+....",
"...++@@@@@++@@@@@@@@++@@@@@++...",
"...+@@@@@@++@@@@@@@@++@@@@@@@+..",
"..+++@@@@@++@@@@++@@@@@@@@@@@++.",
"..+#++@@@@++@@@@++++@@@@@@@++++.",
"..+##++@@@@+++@@@+++@@@@@++$$++.",
"..+###+++@@@+++++++@@@@+++$$$++.",
"..+####+++@@@@@+@@@@+++$$$$$$+..",
"..+######+++@@@@@@@+++$$$$$$$+..",
"..+##++###+++@@@@+++$$$$$++$$+..",
"..+##+++###+++@@++$$$$$$$++$$+..",
"..+##+++++###+++$$$$$$$$++$$$+..",
"..+##+++++++##++$$++$$$++$$$$+..",
"..+####++++++#++$$+++$+++$$$$+..",
"..+####++++++#++$$+++$+++$$$+...",
"..+####+++#++#++$$+++++$$$$$+...",
"..+####+++##+#++$$+++++$$$$$+...",
"..+####+++####++$$+++++++$$$+...",
"..+####+++####++$$++$$+++++$+...",
"..+####+++####++$$++$$$$++$$++..",
"..+####+++####++$$++$$$$$$$+++..",
"...+####++####++$$++$$$$$$$++...",
"....+#########++$$++$$$$$$++....",
".....+########++$$+$$$$$$++.....",
"......+#######++$$$$$$$+++......",
".......++#####++$$$$$$++........",
"........++####++$$$$++..........",
".........++###++$$$+++..........",
"...........+##++$++.............",
"............++++++..............",
".............+++................",
"..............+.................",
"................................"};
