/* XPM */
static char * duiIcon_t_xpm[] = {
"18 24 2 1",
" 	c None",
".	c #0000FF",
"                  ",
"                  ",
"           .      ",
"      ..   .      ",
"      ......      ",
"      ..   .      ",
"      ..   .      ",
"                  ",
"                  ",
"      .....       ",
"      ......      ",
"           .      ",
"           .      ",
"     .......      ",
"     ......       ",
"                  ",
"        ..        ",
"      ......      ",
"     ..   ..      ",
"     ..    .      ",
"     ..    .      ",
"     .......      ",
"                  ",
"                  "};
