/* XPM */
static char * duiLogo_xpm[] = {
"107 140 3 1",
" 	c None",
".	c #2C44B4",
"+	c #EFF4F3",
"                                                                                                           ",
"                                                                                                           ",
"                                                                                                           ",
"                                                                                                           ",
"                                                                                                           ",
"                                                                                                           ",
"                                                                                                           ",
"                                                                                                           ",
"                                                                                                           ",
"                                                                                                           ",
"                                                                                                           ",
"                                                                                                           ",
"                                                                                                           ",
"                                                                        ..                                 ",
"                                                                       ....                                ",
"                                                                      ......                               ",
"                                                                     ........ +                            ",
"                                                                    ..........                             ",
"                                                                   ..........                              ",
"                                                                  ...........                              ",
"                                                                  ...........                              ",
"                                                                  ..........                               ",
"                                                                 ..........                                ",
"                                                                  .........                                ",
"                                                                ..........                                 ",
"                                                               ...........                                 ",
"                                                              .............                                ",
"                                                             ...............                               ",
"                                                             .................                             ",
"                                                            ....................                           ",
"                                                           ......................                          ",
"                                                          .........................                        ",
"                                                         .......... ................                       ",
"                                                         ..........   .................            ....    ",
"                                                        ...........     ...............           ......   ",
"                                                        ...........       ..............         ........  ",
"                                                          ........         ..............        ........  ",
"                                                          ......            ..............     ........... ",
"                                                            ..               ................  ........... ",
"                                                             .               ................ ...........  ",
"                                                                               .........................   ",
"                                                                                 ......................    ",
"                                                                                    ...................    ",
"                                                   ..                               ..................     ",
"                                                 .....                               ................      ",
"                                                .......                                 ............       ",
"                                                ........                                 ..........        ",
"                                               ..........                                .........         ",
"                                               ..........                               ..........         ",
"                                              ...........                             ...........          ",
"                                              ..........                              ...........          ",
"                                             ............                             ...........          ",
"                                            ..............                           ...........           ",
"                                           .................                         ..........            ",
"                                           ..................                        .........             ",
"                                           ....................                      .........             ",
"                                          ......................                     ........              ",
"                                           .......................                    . ....               ",
"                                            ..... ..................                     ..                ",
"                                             ..       ...............                                      ",
"                                                       ................                                    ",
"                                                        ...............                                    ",
"                                                         ...............                                   ",
"                                    ..                    ................                                 ",
"                                    ......                   ..............                                ",
"                                   ........                   ............                                 ",
"                                   .......                    ............. ..                             ",
"                                  .........                    ...............                             ",
"                                 .........                      . ............                             ",
"                                ..........                           ..........                            ",
"                              .............                          ..........                            ",
"                              ...............                        ..........                            ",
"                              ...............                         ........                             ",
"                              ................                         .......                             ",
"                             ....................                     .........                            ",
"                            ......................                     ........                            ",
"                            ........................                  ........                             ",
"                            ........................                  .......                              ",
"                                ...    ..............                ........                              ",
"                                        ...............             .........                              ",
"                                         ................           .........                              ",
"                                          ................          .........                              ",
"                                          ................. ...   . ........                               ",
"                                              ................... .........                                ",
"                                               ...........................                                 ",
"                           ..   .                .......................                                   ",
"                      . ....... . .               ......................                                   ",
"                      .............. ..            .....................                                   ",
"                     ...................             .................                                     ",
"                   .......................            ................                                     ",
"                  .........................            . ...........                                       ",
"                .............................             ... ... .                                        ",
"                ..............................                                                             ",
"               ...............................                                                             ",
"               ................................                                                            ",
"              .............   ...................                                                          ",
"             ............       . ...............                                                          ",
"             ......... .           ................                                                        ",
"            .........               ..............                                                         ",
"           ..........                  .............                                                       ",
"          ..........                     ...........                                                       ",
"          .........                       ..........                                                       ",
"         ..........                       ..........                                                       ",
"         ..........                        ..........                                                      ",
"       .............                       .........                                                       ",
"      ...............                      ..........                                                      ",
"      .................                    .........                                                       ",
"     ..................                    ..........                                                      ",
"     ....................                   ..........                                                     ",
"      ....................                 .........                                                       ",
"       .................... .               .........                                                      ",
"       ....   ...............              ..........                                                      ",
"        ...   .................             ........                                                       ",
"         .     ..................          .........                                                       ",
"                   ................       .........                                                        ",
"                     ...............    ...........                                                        ",
"                     ...............    ...........                                                        ",
"                      ...............   ..........                                                         ",
"                        ............... .........                                                          ",
"                          ......................                                                           ",
"                           .....................                                                           ",
"                           ....................                                                            ",
"                            ...................                                                            ",
"                               ...............                                                             ",
"                                  ...........                                                              ",
"                                  ..........                                                               ",
"                                  .........                                                                ",
"                                  .........                                                                ",
"                                 .........                                                                 ",
"                                 ........                                                                  ",
"                                  .......                                                                  ",
"                                   .....                                                                   ",
"                                      .                                                                    ",
"                                                                                                           ",
"                                                                                                           ",
"                                                                                                           ",
"                                                                                                           ",
"                                                                                                           ",
"                                                                                                           ",
"                                                                                                           "};
